<?xml version="1.0" encoding="utf-8"?>
<!-- Generator: Adobe Illustrator 22.1.0, SVG Export Plug-In . SVG Version: 6.00 Build 0)  -->
<svg version="1.1"
	 id="svg2" xmlns:cc="http://web.resource.org/cc/" xmlns:dc="http://purl.org/dc/elements/1.1/" xmlns:rdf="http://www.w3.org/1999/02/22-rdf-syntax-ns#" xmlns:svg="http://www.w3.org/2000/svg"
	 xmlns="http://www.w3.org/2000/svg" xmlns:xlink="http://www.w3.org/1999/xlink" x="0px" y="0px" viewBox="0 0 507.1 800"
	 style="enable-background:new 0 0 507.1 553;" xml:space="preserve">
<style type="text/css">
	.st0{fill:#F58C3C;stroke:#FFFFFF;stroke-width:0.6;}
	.st1{fill:#878C8C;stroke:#FFFFFF;stroke-width:0.6;}
	svg path:hover{fill: #eb501e;}
</style>
<g id="complete_map">
	<g><a href="https://cdn.rawgit.com/nicolasenault/routes_departements/de9f91762edf4f1141d2a38fa5c9e253dbfa0505/corsedusud.pdf" target="_blank"><path id="Corse-du-Sud" class="st0" d="M445.3,489v2.2l2,1.4l3.3,1.9l0.2,1.6l-2,0.6l-3.1,0.6v1.3l1.2,1.2l0.2,3.9l4.3,1.4l1.6,0.4
		l1.4,2.2l-1,1.4l-1.6,0.6l-1.2,2.2l-1.2,1.4l0.6,3.5l2.9-0.2l0.8,0.6l2.8-1.4l0.8,0.8l-1.4,2.9l1.4,1.4l-2.3,1.8l-1.6,3.5l4.3,1
		l6.1,0.6l-2.5,2.9c0,0-1.2-0.5-1.7-0.2c0,0,0,0-0.1,0l0,0l0,0l0,0l0,0l0,0v0.1l0,0c0,0,0,0,0,0.1c0,0,0,0,0,0.1
		c0,1-1.3,3.3-1.3,3.3l1.9,2.1l3.5,2.2l6.6,1.8l1.9,0.8l1.8,0.8l-1.2,2.2l3.1-0.2l0.6,1.4h3.1l0.8-3.7l-2-0.4l2.8-2.9l-1-1l0.2-1.8
		l3.5-1.9l0.2-2.2l-2.3-0.2l-1.6,1.3v-1.9l3.1-0.2l1-2.3l0.8-6.8l-0.6-2.9l-0.1-2.8l-3.4,2.3l-4.1,0.2l-0.3-2.8l0.5-0.7l-1.3-0.9
		l-0.3-4.8l-0.5-0.9h-2.1l-1.1-0.9v-3.4l-1.4-0.9l-1.1-0.5l-2.1-2.7l0.2-1.6h-2.6l-0.9-2.7h-3.7l-1.9-2.7l0.5-0.9l-1.2-0.7l-2.8,0.5
		l-1.1-0.7h-3.9l-0.4-1.1l-2.2-0.4h-1.8V489z"/><title>Corse-du-Sud</title></a></g>
	<g><a href="https://cdn.rawgit.com/nicolasenault/routes_departements/de9f91762edf4f1141d2a38fa5c9e253dbfa0505/hautecorse.pdf" target="_blank"><path id="Haute_Corse" class="st0" d="M478,449.9l-2.9,2l0.4,1.9l1.6,2l-1.8,1.3l0.8,1.6l-1.2,1.4v1.8l2,1.8v2.7l-1.2,2.5l-1.3,0.6
		l-1.6-2.2l-2.8,0.2l-0.6-0.4H467l-2.1,2l-0.8,3.3l-5.1,1l-3.9,3.3l-0.8,2.2l-1.9-0.2l-1-1.2l-0.6,3.3l-1.4,0.6l-0.4,3.1l0.6,1.4
		l-2.2,1.6l-0.6,1.6l2.2,0.4l0.4,1.1h3.9l1.1,0.7l2.8-0.5l1.2,0.7l-0.5,0.9l1.9,2.7h3.7l0.9,2.7h2.6l-0.2,1.6l2.1,2.7l1.1,0.5
		l1.4,0.9v3.4l1.1,0.9h2.1l0.5,0.9l0.3,4.8l1.3,0.9l-0.5,0.7l0.3,2.8l4.1-0.2l3.4-2.3l-0.1-5.8l4.7-6.6v-10.9l-1.9-3.7l-0.6-11.7
		l-1.4-2.2l-2.5-1.9l-0.4-7.3l1.2-3.3l-1.6-5.3l-1-4.3l-0.8-1.2L478,449.9z"/><title>Haute Corse</title></a></g>
	<g><a href="https://cdn.rawgit.com/nicolasenault/routes_departements/de9f91762edf4f1141d2a38fa5c9e253dbfa0505/bouchedurhone.pdf" target="_blank"><path id="Bouches-du-Rhône" class="st0" d="M379.7,409.9l-5.5,3.1l-1.4,10.5l-5.8-0.8l-1.7,4.4l1.4,1.9l-6.3,3.9l-1.8,4.1l6.2,0.3
		l8.2,0.6l1.6,1.6h-2.9l-1.9,3.3l8.4,1.8l6.7-1.2l-3.5-3.3l2.3-1.9l3.7,1.6l1.8,3.7l11.2,0.2l2.9-1.2l0.6,1.8l-3.1,2.7l4.3,0.2
		l-0.8,2l-1.2,1.4h9.6l4.7,1.6l0.5,0.6l0.2-3.9l1.4-1.6l1.8-1.1l-0.2-1.1l-1.4-1.4h-1.4l-0.9-1.1l1.6-1.4v-0.5l-1.8-0.9v-1.4
		l3.9,0.2l0.9-0.7l-3.4-3.2l0.2-3.7l-2.1-1.8l1.8-3.5l4.3-2.8l-3.2-2.1l-2.3,1.8l-5.3,1.2l-4.3-0.5l-7.6-3.2l-4.6,0.2l-3.9-1.8
		l-1.4-2l-3-3.3l-7.1-3L379.7,409.9z"/><title>Bouches-du-Rhône</title></a></g>
	<g><a href="https://cdn.rawgit.com/nicolasenault/routes_departements/de9f91762edf4f1141d2a38fa5c9e253dbfa0505/vaucluse.pdf" target="_blank"><path id="Vaucluse" class="st0" d="M387,381.3l-2.8,0.2l-2.1,3.3l0.6,3.5l3.3,0.4l-0.6,1.6l-2.6,0.2l-2.9,2.9l-0.8-1l0.6-3.9
		l-1.2-1.4l-5.3,0.8l-1,2.1l0.6,0.3l3.3,5.5v4.4l5.8,5.8v2.5l-2.3,1.3l0.2,0.1l7.1,3l3,3.3l1.4,2l3.9,1.8l4.6-0.2l7.6,3.2l4.3,0.5
		l5.3-1.2l2.2-1.7l0.3-1.5l-4.1-4.6H411V413l1.6-1.8v-1.9l-3.5-1.8l-0.3-2.8l1.9-0.9v-2.5l-2.1-0.4l-0.2-2.7V398l-1.8-0.1l-2.9-2.2
		l-0.8-2.5l-5.5-0.4l-4.1-0.4l-0.4-2.3l1.4-2.9l-2.5,2.2l-3.9-0.4l-0.8-1.4l2.7-3.7L387,381.3z"/><title>Vaucluse</title></a></g>
	<g><a href="https://cdn.rawgit.com/nicolasenault/routes_departements/de9f91762edf4f1141d2a38fa5c9e253dbfa0505/var.pdf" target="_blank"><path id="Var" class="st0" d="M457.8,413.2l-3,0.1l-1.4,1.4l-5.3-0.2l-4.6,3.3l-3.2-2.1l-5,1.6l-0.9,1.8l-3.5,2.7l-6.4-4.3
		l-5.2,1.7l-0.3,1.4l0.1-0.1l3.2,2.1l-4.3,2.8l-1.8,3.5l2.1,1.8l-0.2,3.7l3.4,3.2l-0.9,0.7l-3.9-0.2v1.4l1.8,0.9v0.5l-1.6,1.4
		l0.9,1.1h1.4l1.4,1.4l0.2,1.1L419,447l-1.4,1.6l-0.2,3.9l0.5,0.7l3.5,1.6l1,3.9l2.2,0.4l2-1.4l3.5-2.2l6.1,0.6l-0.2,1.6l-2,1
		l4.7,0.2l-1.2-1.2l-0.4-2.5l2.5-1.8l2.9,1l1.2,0.4l1,1.2l1.4-1l0.4-2.6l1.6-1.3h4.1l1.2-1.8l2.7,0.8l3.1-1.3v-5.1l-4.1,0.2l3.1-1.9
		l1.6-2.2l0.4-3.1l5.7-0.8l3.2-3.5l-2.2-2.3v-1.3l-1.1-1.1l1.4-1.2l-0.3-2l-2.3-0.9h-1.2l-2.1-2.1l-0.4-3.7l-2.3-1.1l-2.3-0.2
		l-0.9-2.1L457.8,413.2z"/><title>Var</title></a></g>
	<g><a href="https://cdn.rawgit.com/nicolasenault/routes_departements/de9f91762edf4f1141d2a38fa5c9e253dbfa0505/alpesdehauteprovence.pdf" target="_blank"><path id="Alpes-de-Haute-Provence" class="st0" d="M463.8,364.3l-2.1,3.2l-3,1.8l-1.1,2.1l-2.7,0.2v1.9l-0.7,1.1l-1.1,2.7l-6.3-0.2
		l-3-1.6l-2,1.4l-3.7-0.2l-0.9,1.3h0.9l0.5,3.3l-0.9,0.4l-3.3-2.1v-1.3l-1.9-1.6h-1.1v1.8l-1.6,0.3l-3.4,1.9l-2.1,3.6l-0.5,1.8
		l1.3,0.3l0.2,2.8H424l-1.9-1.8l-1.1,0.2l0.5,1.6l3,3.3l-1.9,0.7l-1.4-0.9h-3.6l-3,2.8l0,0l-0.1,1.2l-1.2-1.4l-1.6-1.4l-1,2.9
		l-1.8,1.6l-0.8-0.1v0.2l0.2,2.7l2.1,0.4v2.5l-1.9,0.9l0.3,2.8l3.5,1.8v1.9L411,413v1.6h4.4l4.1,4.6v0.1l5.2-1.7l6.4,4.3l3.5-2.7
		l0.9-1.8l5-1.6l3.2,2.1l4.6-3.3l5.3,0.2l1.4-1.4l3-0.1h0.1l-0.7-1.8l0.9-1.1L458,409h2.8l0.7-0.9l2.7-1.4l2.1,1.4l1.4-0.9l-3.3-3
		l-3.6-3.3l-1.2-0.4l-0.2-2.7l-2.1-3.2l0.7-4.6l1.1-2.5l1.9-1.6l0.2-2.5l2.7-1.4l0.4-0.2V378l2.8-0.4l-1.6-1.4l-2-0.6l-1-2.5
		l0.8-1.8l3.5-3.7l-0.6-2.8l0.5-0.5L463.8,364.3z"/><title>Alpes-de-Haute-Provence</title></a></g>
	<g><a href="https://cdn.rawgit.com/nicolasenault/routes_departements/de9f91762edf4f1141d2a38fa5c9e253dbfa0505/alpesmaritimes.pdf" target="_blank"><path id="Alpes_Maritimes" class="st0" d="M463.9,381.9l-0.4,0.2l-2.7,1.4l-0.2,2.5l-1.9,1.6l-1.1,2.5l-0.7,4.6l2.1,3.2l0.2,2.7
		l1.2,0.4l3.6,3.3l3.3,3L466,408l-2.1-1.4l-2.7,1.4l-0.7,0.9h-2.8l0.3,1.4l-0.9,1.1l0.7,1.8l-2.3,1.4l0.9,2.1l2.3,0.2l2.3,1.1
		l0.4,3.7l2.1,2.1h1.2l2.3,0.9l0.3,2l-1.4,1.2l1.1,1.1v1.3l2.2,2.3l0.2-0.2l0.2-4.5l3.9,0.8l1.4-1.8l2,0.4l0.2-6.1l4.5-0.4l3.9-3.5
		h3.5l0.2-2.2l3.5-2.1l-2-4.5l2.9-2.5l-0.6-2.9l4.3-1.4l1.2-4.3l-0.6-2.9l-1-1.8l-0.8-2.6l-2.9,0.2l-9.2,3.3h-2.9l-5.1-4.1l-5.1-1.4
		H468v-3.5l-4.1-2.5V381.9z"/><title>Alpes Maritimes</title></a></g>
	<g><a href="https://cdn.rawgit.com/nicolasenault/routes_departements/de9f91762edf4f1141d2a38fa5c9e253dbfa0505/hautesalpes.pdf" target="_blank"><path id="Hautes-Alpes" class="st0" d="M447.3,339.2l-1.8,0.8l-0.4,2.9l-3.5,0.4l-0.6-2.8l-1.2-1.2l-3.5,0.4l-1.4,1.2l-0.8,4.1
		l0.6,1l4.1,0.4l0.8,2.5l1.6,0.8v4.3l-3.7-0.2l-1.6,1.8l-4.5-0.8l-2.5,2.2l-1.8-0.8l-2.5,2l1,1.8l-1.6,1.6h-4.9v2.3l1.6,0.8
		l-0.6,1.4l-3.3,1.3l-4.1,0.4l-1.2,3.7l-0.2,2.3l2.2,1.8l-2.2,2.5l-2.7-1.4l-3.1-0.2l-0.4,1.8l2,1.4l-2.4,1.6l0.8,3.3l6.6,1.8
		l1.2,2.5l1.9,0.4l-0.7,6.1l0,0l3-2.8h3.6l1.4,0.9l1.9-0.7l-3-3.3l-0.5-1.6l1.1-0.2l1.9,1.8h1.3l-0.2-2.8l-1.3-0.3l0.5-1.8l2.1-3.6
		l3.4-1.9l1.6-0.3V377h1.1l1.9,1.6v1.3l3.3,2.1l0.9-0.4l-0.5-3.3h-0.9l0.9-1.3l3.7,0.2l2-1.4l3,1.6l6.3,0.2l1.1-2.7l0.7-1.1v-1.9
		l2.7-0.2l1.1-2.1l3-1.8l2.1-3.2l2.5,0.1l1.8-2l2.1,0.2v-1.8l-2.7-1.4l-0.6-5.7l-2.2-0.8l-2.7,0.4l-5.1-2.6l-0.8-5.8l-2.9-1l-1-2
		l-1.3-2.8L447.3,339.2z"/><title>Hautes-Alpes</title></a></g>
	<g><a href="https://cdn.rawgit.com/nicolasenault/routes_departements/de9f91762edf4f1141d2a38fa5c9e253dbfa0505/lozere.pdf" target="_blank"><path id="Lozère" class="st0" d="M320.8,352.3l-5.5,2l-1.6,3.5l-3.5-2.3l-2.8,8.6l-2.8,6.5l4.1,5l-0.3,3.9l2.8,1.9v4.7l0.8,6.6
		l3.3,1.4l-0.3,2.2l4.7-0.8l1.7,0.8l-1,0.9l6,4l5.2-1.1l0.9-1.3l-0.7-1.8l2.1-0.5l3,2.8l5.1,0.5l2.3-3.5v-3l1.4-1.6l-1.3-0.3v-4.1
		l-2.8-3l2.3-0.4l1.2-1.1l1-1.9l-1-0.6l0.6-4.1l-3.3-3.6l-1.4-7.2l-5-6.3l-3.6,0.9l-0.8-2.7h-2l-0.4,2.3l-5.1,1.6L320.8,352.3z"/><title>Lozère</title></a></g>
	<g><a href="https://cdn.rawgit.com/nicolasenault/routes_departements/de9f91762edf4f1141d2a38fa5c9e253dbfa0505/allier.pdf" target="_blank"><path id="Allier" class="st0" d="M301.6,248l-2.7,3.5l-1.6,0.2l-1.8,1.8l-2-2.2l-5.3,5.3v3.1l1,0.8l0.2,1.6l-2.7,2.1l-2.6-0.8
		l-4.9,1l-2.5,2.9l-0.9,2h0.2l2.3,3.3v2.3l1.3,1.8l1.4-1.8l1.6,2.8l2.2,0.8l2.2,5.1l0.1,1.5l3,2.3l1.6-0.7l1.3-3l1.2-0.3v-1.6
		l2.1-0.2l0.2,1.1l2.7-3h3l0.5,1.1l-1.4,1.9l2.1,2.3l0.4,1.4l4.9,2.8l6,0.9l1.8-0.2l2.7,0.5l2.3-1.4l1.8,0.9l0.3,2.5l2.3,0.5l3-0.2
		l0.9,2.1l2.8,1.1l0.1-1l4.7-0.2l-0.4-11.1l-1.4-2.7l0.6-2.2l3.3-0.6l0.1-0.2l4.1-3.1l0.2-7.6l-1.4-1.9h-3.1l-1.2-1.6h-3.3l-1-1.2
		v-2.9l-3.9-7.4l-1.9-1.4l-3.7,5.1l-1.6,0.4l-0.6-2.5l-1.8-0.8l-0.8,1.6h-2.9l-0.4-1.8l-2,1.2l-2.3,1l-2.3-2.6l-3.3-1.6l-0.2-2.5
		L301.6,248z"/><title>Allier</title></a></g>
	<g><a href="https://cdn.rawgit.com/nicolasenault/routes_departements/de9f91762edf4f1141d2a38fa5c9e253dbfa0505/gard.pdf" target="_blank"><path id="Gard" class="st0" d="M346.2,381l-1,1.9L344,384l-2.3,0.4l2.8,3v4.1l1.3,0.3l-1.4,1.6v3l-2.3,3.5l-5.1-0.5l-3-2.8
		l-2.1,0.5l0.7,1.8l-0.9,1.3l-5.2,1.1l-6-4l-1.2,1v2.8l-2.2,0.5l0.6,2.2l2.8,0.6h3l0.8,3.8l-3.6,1.7v1.8l2.8,1v1.6l1.3,0.7l1.1-0.9
		h1.4l0.7,1.6h2.1l1.1-3.7h1.8l2.7-3.3l3.2,0.3l0.5,4.6l1.2,1.4l2-1.1l3.3,1.8l1.3,2.1l5.8,3.5l2.1,5v2.6l-3.7,2.1l-2.4,2.2l3,0.2
		v3.9l4.5-0.2l2.4,0.1l1.8-4.1l6.3-3.9l-1.4-1.9l1.7-4.4l5.8,0.8l1.4-10.5l7.7-4.4v-2.5l-5.8-5.8v-4.4l-3.3-5.5l-6.9-3.9l-0.5,3
		l-2.8,0.3l-0.8-3l-2.8,0.5l-0.5,3.9l-2.2-0.8l-4.7-3.1l-2.2,1.1v-5.5L346.2,381z"/><title>Gard</title></a></g>
	<g><a href="https://cdn.rawgit.com/nicolasenault/routes_departements/de9f91762edf4f1141d2a38fa5c9e253dbfa0505/aude.pdf" target="_blank"><path id="Aude" class="st0" d="M274.3,438.5l-0.3,3.6l-3.6-1.1h-3.9l0.3-1.4l-1.9,0.3l-4.1,1.4l-1.4-2.5l-2.8,2.5l0.8,1.9l-3.1,1.4
		l-0.5,3l-2.5,1.1l2.2,2.5l-0.6,1.7l9.7,4.7l0.8,6.7v3.6l0.6,4.7h-5l-1.4,1.9l6.3,5.3l3.6-1.9l4.4,5.3l-0.7,0.1l0.8,0.5l7.9-3.9
		l-1.9-2.8l-0.2-3.3h18.5l-0.3-2.5l4.3-2.3l4.9,3.9l2.6,1.2l-0.2-5.6l0.2-6.4l-2.3,0.2l-2-2.9l1.6-2.6l3.3,3.1l2.9-2.3l2-1.9
		l0.3-2.1l-2.5-0.1l-0.9-2.8l-2.5-0.2l-2.3-3.4l-1.8,0.2l-2.1-1.3l-0.4-3l-1.1,0.5l0.5,2.1H298l-0.2,3.5l-3.7,1.3l-1.8-3.7l-2.5,1.6
		l-2.1-1.6l-1.1-2.5l1.8-2.1l-0.8-2.3l-0.2,0.1H282l-6.1-1.1h-1.6V438.5z"/><title>Aude</title></a></g>
	<g><a href="https://cdn.rawgit.com/nicolasenault/routes_departements/de9f91762edf4f1141d2a38fa5c9e253dbfa0505/herault.pdf" target="_blank"><path id="Hérault" class="st0" d="M335.5,408.4l-2.7,3.3H331l-1.1,3.7h-2.1l-0.7-1.6h-1.4l-1.1,0.9l-1.3-0.7v-1.6l-2.8-1v1
		l-3.3,0.5l-1.7,1.4l0.5,3.3h-3l-3-1.7h-1.7v1.9l0.3,5.8h-3.3h-1.7l-1.1,2.2l-7.2,2.5l-2.8-1.9l-1.7,2.5l-0.8,2.8l3,2.8l-1.1,3.6
		l-4.2,1.3l0.8,2.3l-1.8,2.1l1.1,2.5l2.1,1.6l2.5-1.6l1.8,3.7l3.7-1.3l0.2-3.5h2.5l-0.5-2.1l1.1-0.5l0.4,3l2.1,1.3l1.8-0.2l2.3,3.4
		l2.5,0.2l0.9,2.8l2.5,0.1l0.1-1.1l7-2.2l0.8-1.8l5.5-0.2l1.8-2.2l10.6-8.4l6.6-4.7l2.7,0.2l2.4-2.2l3.7-2.1v-2.6l-2.1-5l-5.8-3.5
		l-1.3-2.1l-3.3-1.8l-2,1.1l-1.2-1.4l-0.5-4.6L335.5,408.4z"/><title>Hérault</title></a></g>
	<g><a href="https://cdn.rawgit.com/nicolasenault/routes_departements/de9f91762edf4f1141d2a38fa5c9e253dbfa0505/pyreneesorientales.pdf" target="_blank"><path id="Pyrénées_Orientales" class="st0" d="M300.5,468.7l-4.3,2.3l0.3,2.5H278l0.2,3.3l1.9,2.8l-7.9,3.9l-0.8-0.5l-6.5,0.5
		l-0.8,1.7l-3.3,0.8l-2.2,1.9l-6.1,1.4l0.3,2.1l2.9,2.8l5.8,1.6l0.2,3.5l3.1,2.8l2.3-0.4l3.3-4.1l4.1-0.8l6.4,2.2l5.5,4.7l1.6-2h1.4
		l1.4,1l1.2-0.6l0.2-2.8l5.9-1.4l1.9-2.5l2.9-1h4.1l2.6,2.7l3.1,0.2v-3.1l-1.6-2.2l-2.8-1.2l-0.4-17.1l-2.6-1.2L300.5,468.7z"/><title>Pyrénées Orientales</title></a></g>
	<g><a href="https://cdn.rawgit.com/nicolasenault/routes_departements/de9f91762edf4f1141d2a38fa5c9e253dbfa0505/cantal.pdf" target="_blank"><path id="Cantal" class="st0" d="M285.8,323.7l-0.6,2.2l1,2.3l-1.2,1.4h-1.9l-2-2.2l-1.8-1l-0.2,5.5l-3.5,2.2l-2.5,3.5l0.6,3.5
		l-0.8,1.6l-1,3.1h-1.6l-1.6,1.9l1.2,1.2l0.8,1.9l-2.5,1.8l1,6.5l3.3,2.5l-2.5,5.8l2.5,1.1l-1.1,3.3l2.2,0.3l1.7-2.8h2.8l0.5,0.8
		h6.1l1.1-2.5l1.4-0.6l0.6-4.4h1.4v-4.7l5.5-4.7l0.6,0.8l0.5,3.6l3.9-0.6l0.8,5.5h1.9l0.6,5.5l1.7,2.1l2.8-6.5l2.8-8.6l3.5,2.3
		l1.6-3.5l5-1.8v-1.7l-1.1-1.6l-2.1-1.3l1.1-1.6l-0.9-0.9l1.1-0.3l1.3-1.1l-2.1-0.2l-1.1-1.4l-0.3-3.7l-1.3-1.3l-0.9-3.2h-4.4
		l-0.9-2.5l-1.4-0.2l-0.7,1.4l-2.8-0.2l-2.7-4.1l-1.1-0.2l-2.1-1.1l-1.3,1.2h-3.2l-1.6-3.3L285.8,323.7z"/><title>Cantal</title></a></g>
	<g><a href="https://cdn.rawgit.com/nicolasenault/routes_departements/de9f91762edf4f1141d2a38fa5c9e253dbfa0505/hauteloire.pdf" target="_blank"><path id="Haute_Loire" class="st0" d="M317.8,326.3l-1.4,0.7v1.2l-2.1,0.2l-1.9,1.6l-3.5,0.5l-0.8,1.2l0.6,0.1l0.9,2.5h4.4l0.9,3.2
		l1.3,1.3l0.3,3.7l1.1,1.4l2.1,0.2l-1.3,1.1l-1.1,0.3l0.9,0.9l-1.1,1.6l2.1,1.3l1.1,1.6v1.7l0.5-0.2l3.5,9l5.1-1.6l0.4-2.3h2
		l0.8,2.7l3.6-0.9l4.5,5.8l2.8-4.5l5.1-3.7h4.7l1.6-4.9l3.1-0.2l0.2-3.7h2.9l-0.6-1.4l-0.8-2.5l1.2-2l2.8-1.2l1.2-4.7l-2.5-2.9
		l-3.1,0.2l0.4-3.7l-6.3-2.7l-2.1,0.2l-4.3,3.5l-3.9-1.3l-0.8,0.8l-2.5-0.7l-1.8-1.8l-1.1,2.1l-3-0.2l-1.4-1.3l-1.1,2.5l-1.9-0.9
		l-1.3-2.3h-1.6l-1.4-1.2l-2.1,0.9l-2.5,0.2l-1.4-0.9l-0.9,0.5L317.8,326.3z"/><title>Haute Loire</title></a></g>
	<g><a href="https://cdn.rawgit.com/nicolasenault/routes_departements/de9f91762edf4f1141d2a38fa5c9e253dbfa0505/puydedome.pdf" target="_blank"><path id="Puy-de-Dôme" class="st0" d="M299.1,279.5l-2.7,3l-0.2-1.1l-2.1,0.2v1.6l-1.2,0.3l-1.3,3l-1.6,0.7l-3-2.3l0.3,4.6
		l1.6,1.9l0.8,3.7l-2.3,1.8l-0.6,2.8l-2.2,1.2l-3.7,2.2l0.4,1.8l4.5,4.5l0.4,2.8l-1.8,2.9v2.8l1.2,1.4l0.6,3.3l-0.4,1.3l6,1.8
		l1.6,3.3h3.2l1.3-1.2l2.1,1.1l1.1,0.2l2.7,4.1l2.8,0.2l0.7-1.4l0.8,0.1l0.8-1.2l3.5-0.5l1.9-1.6l2.1-0.2v-1.2l1.4-0.7l0.4,0.9
		l0.9-0.5l1.4,0.9l2.5-0.2l2.1-0.9l1.4,1.2h1.6l1.3,2.3l1.9,0.9l1.1-2.5l1.4,1.3l3,0.2l1.1-2.1l1.8,1.8l2.5,0.7l0.8-0.8l-1.5-0.5
		l-0.6-2.3l3.7-3.5l-1.8-6.4l-5.1-3.3l-2.1-5.1l-2.3-3.1l0.6-4.3l1.8-1.8l-3.1-2.5l0.1-0.8l-2.8-1.1l-0.9-2.1l-3,0.2l-2.3-0.5
		l-0.3-2.5l-1.8-0.9l-2.3,1.4l-2.7-0.5l-1.8,0.2l-6-0.9l-4.9-2.8l-0.4-1.4l-2.1-2.3l1.4-1.9l-0.5-1.1h-3.2V279.5z"/><title>Puy-de-Dôme</title></a></g>
	<g><a href="https://cdn.rawgit.com/nicolasenault/routes_departements/de9f91762edf4f1141d2a38fa5c9e253dbfa0505/hautespyrenees.pdf" target="_blank"><path id="Hautes_Pyrénées" class="st0" d="M179.2,428.5l-1.9,1h0.3l3.3,5.5l-2.2,2l1.6,2.3l2.3,3.5l-1.9,2.5l-3.1,7l-5.3,4.5
		l1.4,2.8l-1.2,0.8l-2.9-0.6l-0.8,6.4l-1.6,1.2l-0.3,4l0.5-0.3l3.3,2l3.9,2.9l0.4,2.3l3.1,2.5h2.6l6.4-2.8l2.7,3.1l3.7,1l1.4-2.3
		l1.8,0.8l3.8,0.3l-0.3-10.5h2l1.8,0.9l1.3-1.2l-0.2-1.9l2.5-1.4l-0.9-3.7l-1.1-0.9l-2.1,0.7l1.1-1.8l-0.5-2.3l-3.2-2.3l0.2-1.6
		l1.8-3l2.3-0.9v-1.3l1.4-2.1l0.9-1.3l-3.6-1.8H199l-0.7-1.4h-2.5l-0.7-1.6h-2.3l-0.7,0.7h-2.7l-0.2-1.6l-2.1-1.4l0.7-0.7l0.3-1.8
		l-0.5-0.5l-1.1-2.8l-2.3-0.3l-2.3-1.3l0.2-3.3L179.2,428.5L179.2,428.5z"/><title>Hautes Pyrénées</title></a></g>
	<g><a href="https://cdn.rawgit.com/nicolasenault/routes_departements/de9f91762edf4f1141d2a38fa5c9e253dbfa0505/pyreneesatlantiques.pdf" target="_blank"><path id="Pyrénées_Atlantiques" class="st0" d="M172.2,428.9l-2.8,1.6l-5.7-0.2l-0.5-0.9l-3.7,1.3l-2.8,0.9l-2.1-1.6l-2.3,0.7
		l-0.7-0.9h-2.8l-1.8,0.9l-4.6-0.2l-2.5,1.9l-4.4-0.3l-0.9,1.3l-1.1-0.4l1.4-1.4l-2.5-1.9l-3,2.7l-5.1,0.3l-5.6-2.8l-0.8,1.4
		l-4.5,5.5l-3.5,1.4l-2.5,0.4v2.2l2.3,2.2l3.5,0.2l0.2,2.5l2.8,0.2l0.8-1.8l3.7,1.6l2.3,0.6l0.6,2.3l-1.3,1.2v3.7l-2.8,1.4l-0.2,1.8
		l1.8,2l3.1,1l0.6-2.9l1.8-1.9l-0.2,2.5l1.4,2h3.5l1.6,2.1l4.7,0.8l4.5,2.8h7.4l0.4,4.1l5.1,3.9l2,2.3l2.2-1.2l1.9-0.4l1,1l1.8-1
		l3.4-1.9l0.3-4l1.6-1.2l0.8-6.4l2.9,0.6l1.2-0.8l-1.4-2.8l5.3-4.5l3.1-7l1.9-2.5l-2.3-3.5l-1.6-2.3l2.2-2L178,430l-5.3-0.4
		L172.2,428.9z"/><title>Pyrénées Atlantiques</title></a></g>
	<g><a href="https://cdn.rawgit.com/nicolasenault/routes_departements/de9f91762edf4f1141d2a38fa5c9e253dbfa0505/landes.pdf" target="_blank"><path id="Landes" class="st0" d="M139.8,374.4l-6.2,3.2l-1.6,0.1l-3.5,18.6l-4.5,17.2l-1.4,6.7l-1.2,4.7l-2.9,5l5.6,2.8l5.1-0.3
		l3-2.7l2.5,1.9l-1.4,1.4l1.1,0.4l0.9-1.3l4.4,0.3l2.5-1.9l4.6,0.2l1.8-0.9h2.8l0.7,0.9l2.3-0.7l2.1,1.6l2.8-0.9l3.7-1.3l0.5,0.9
		l5.7,0.2l2.8-1.6l-1.4-2.4l1.4-3.7l1.9-2.5l-0.6-3.3l1.6-1.6l-2.3-3.9l1.9-2.3l2.2-0.4l1.9,0.8l2.8-2.3l1,2.9l1,1.4l2.2-0.6
		l-0.2-2.5l0.6-1.4l-0.5-1.2l0.5-3.9l2.1-2.1l-1.1-1.3l-2.3-0.2l-2.7-1l-3.9,0.3l-0.7-4.3l-2.5-3l-1.1-0.3l0.4,3.5v1.1l-3.4,0.2
		l-3.5-1.2l-0.7-4.4l-2.5-2.7l-1.8-0.2l-0.2-1.6l-1.9-1.3l-3.2-0.9l0.9-1.1v-1.1l-1.1-0.9l-1.2-1.1l-3.6,0.5l-2.1,1.8l-1.4,0.2
		l-2.3-1.6l-3.4,1.4l-1.6-1.1l1.4-1.8l0.2-2.3L139.8,374.4z"/><title>Landes</title></a></g>
	<g><a href="https://cdn.rawgit.com/nicolasenault/routes_departements/de9f91762edf4f1141d2a38fa5c9e253dbfa0505/gironde.pdf" target="_blank"><path id="Gironde" class="st0" d="M141.3,315.2l-3.1,4.7l-1,16.4l-2.5,16.6l-1.8,12.9l-0.2,3.3l1.4-4.5l2.7-3.5l3.9,3.5l0.4,1.2
		l1.2,1.6l-4.9,0.2l-0.8-1.2l-1.9,0.8l-0.4,2.9l-2.2,2.9v4.5v0.2l1.6-0.1l6.2-3.2l3.3,1.2L143,378l-1.4,1.8l1.6,1.1l3.4-1.4l2.3,1.6
		l1.4-0.2l2.1-1.8l3.6-0.5l1.2,1.1l1.1,0.9v1.1l-0.9,1.1l3.2,0.9l1.9,1.3l0.2,1.6l1.8,0.2l2.5,2.7l0.7,4.4l3.5,1.2l3.4-0.2v-1.1
		l-0.4-3.5l1.1,0.3l2,2.4l3.1-0.5l1.4-1.4l-0.2-1.9l-1.3-1.1l0.4-2h1.9l1.9-1.2l-0.9-1.8l-0.5-2.7l1.4-2.5l3-4.6l1.8-2.1l1.6-0.5
		l0.3-1.8l-2.1-0.2l-0.9-1.9l0.7-1.9l2.5-0.5l1.8-0.5l2.1-0.3l-0.1-0.1l-0.2-3.9l1.9-1.4l-2.5-1.6l-2.5,3l-6,0.2l-0.5-1.4l-1.8-0.9
		l1.4-1.8v-1.9l-0.7-1.1v-1.1l1.8-1.1l0.5-3.2l1.1-2.8l-1.1-1.6h-1.9l-1-1.2l-1,2.1l-1.9-1.4l-2.8,1.4l-2.3-0.4l-4.5-4.5l-2.8-0.2
		l-0.8-6.3l-5.1-0.6l-0.2-2.9l-1,1h-5.8l0.3,1.3l1.4,5.7l0.4,5.7l-1,1.6l-1-4.7l-2.8-10.7l-10-9l0.2-4.1L141.3,315.2z"/><title>Gironde</title></a></g>
	<g><a href="https://cdn.rawgit.com/nicolasenault/routes_departements/de9f91762edf4f1141d2a38fa5c9e253dbfa0505/dordogne.pdf" target="_blank"><path id="Dordogne" class="st0" d="M209.8,310.5l-1.8,3.1l-2.8,0.4l-0.2,4.7l-9.2,6.3l-0.2,6.8l-3.5,3.5l-1.9,1.8l-3.9-0.4
		l-2.2,3.7l-0.6,1.2l1,1.2h1.9l1.1,1.6l-1.1,2.8l-0.5,3.2l-1.8,1.1v1.1l0.7,1.1v1.9l-1.4,1.8l1.8,0.9l0.5,1.4l6-0.2l2.5-3l2.5,1.6
		l-1.9,1.4l0.2,3.9l2.8,2l0.3,3.7l3,1.1l1.8-1.6h3.9l2.1-1.8l1.3,0.2l0.3,1.4h3.9l0.9-1.1l1.4,0.2l1.6,1.8v1.3l-1.4,0.9l0.5,1.3
		l1.9,0.2l2.5-2.3h2.1l1.4,1.6l3.1,1.3l0.2-0.5l1.8-1.8l0.2-2.9l4.3-0.4l2.8-3.9l-1.2-0.4l-0.2-2.1l3.3-0.4l0.2-1.9l1.6-1l1.8-3.1
		l-1.8-1.9v-2.2l1.3-1.2l-1.8-2.8l0.2-4.3l-4.3,0.2l-1.8-1.2l1.6-1.9l-2.2-1.8l1.6-2l-1.6-0.8v-2.7l3.9-3.5l-2.2-1.8l-1.2-2.9
		l-4.1-0.6l-1.4-1l2.9-1.4l-1-1.3l-4.3-0.6l-1-3.9l-6.3-0.6l-1.4,2l-1.3,0.4l-1.8-2.3l0.8-2.2l-1-1.9L209.8,310.5z"/><title>Dordogne</title></a></g>
	<g><a href="https://cdn.rawgit.com/nicolasenault/routes_departements/de9f91762edf4f1141d2a38fa5c9e253dbfa0505/lotetgaronne.pdf" target="_blank"><path id="Lot-et-Garonne" class="st0" d="M195.3,363.4l-2.1,0.3l-1.8,0.5l-2.5,0.5l-0.7,1.9l0.9,1.9l2.1,0.2l-0.3,1.8l-1.6,0.5
		l-1.8,2.1l-3,4.6l-1.4,2.5l0.5,2.7l0.9,1.8l-1.9,1.2h-1.9l-0.4,2l1.3,1.1l0.2,1.9l-1.4,1.4l-3.1,0.5l0.5,0.6l0.7,4.3l3.9-0.3l2.7,1
		l2.3,0.2l1.1,1.3l-2.1,2.1l-0.5,3.9l0.5,1.2l0.8-1.6l2.3,2l3.1-3.1l1.4,1.9l3.3-0.6l3.5-0.4l1.6-2.8l5.8-0.6l2.9,2.9l1-1l1.9-0.6
		l-0.8-2.7l2.9-0.8l3.7-0.8l-0.8-2.3l1.2-1.4l1-3.7l-2.2-2.3l1.4-4.5l2.9,1.8l4.3-0.8l-2-4.3l-1.6-5.8l3.9-0.2l0.8-2.1l-3.1-1.3
		l-1.4-1.6H222l-2.5,2.3l-1.9-0.2l-0.5-1.3l1.4-0.9V369l-1.6-1.8l-1.4-0.2l-0.9,1.1h-3.9l-0.3-1.4l-1.3-0.2l-2.1,1.8h-3.9l-1.8,1.6
		l-3-1.1l-0.3-3.7L195.3,363.4z"/><title>Lot-et-Garonne</title></a></g>
	<g><a href="https://cdn.rawgit.com/nicolasenault/routes_departements/de9f91762edf4f1141d2a38fa5c9e253dbfa0505/lot.pdf" target="_blank"><path id="Lot" class="st0" d="M247.5,347.3l-4.2,1.9l-0.6,0.1l0.1,0.2l-1.3,1.2v2.2l1.8,1.9l-1.8,3.1l-1.6,1l-0.2,1.9l-3.3,0.4
		l0.2,2.1l1.2,0.4l-2.8,3.9l-4.3,0.4l-0.2,2.9l-1.8,1.8l-1,2.6l-3.9,0.2l1.6,5.8l1.7,3.6l2.5-0.1l0.2,1l-1.4,1.6l1.1,2.1h1.6
		l1.8,1.9h1.6l1.3-1.4l0.3,0.4v1.8l0.5,2.3l3.7,0.2l3-3.2l1.6-0.2l0.5,0.9l0.9,1.9h1.4l0.5-3.5l3,0.4l1.8-2.1l2.8,0.7l4.3-1.9v0.4
		l1.4-1.4l-1.8-2.7l-0.7-3.5l2.3-1.9l1.1,0.3l3.2-3.5l1.8,0.2l0.7-0.9h3.5l1.3-1.4l0.3-1.1l-1.6-0.2l1.1-3.3l-2.5-1.1l2.5-5.8
		l-3.3-2.5l-1.1-7.2l-3-0.8l-2.2,2.2l-1.1-1.9l-3.3,3.3l-2.2,0.3l-3.8-5.5L247.5,347.3z"/><title>Lot</title></a></g>
	<g><a href="https://cdn.rawgit.com/nicolasenault/routes_departements/de9f91762edf4f1141d2a38fa5c9e253dbfa0505/ariege.pdf" target="_blank"><path id="Ariège" class="st0" d="M237.2,446.4l-1.3,0.9l-0.5,1.1l2.5,1.8l0.7,1.3l-0.5,1l-4.3,0.4l-1.2,1.8l0.2,0.5l1.6,0.5
		l0.9,1.3l-1.1,1.8l-1.3-0.2l-1.9-1.8l-2.3-0.7l-2.3,0.2l-4.1,2.5l0.2,3.4l1.1,0.7l-0.7,2.6l-4.6,1.3l-1.8,2.1v3.5l0.7,1.1l-1.7,1.5
		l1.1,0.6l6,1.2h2.6l3.3,4.3l8.4-0.4l3.3,5.3l2.9-1.2l8.6,1.2l0.6,3.6l6.1-1.4l2.2-1.9l3.3-0.8l0.8-1.7l7.2-0.5l-4.4-5.3l-3.6,1.9
		l-6.3-5.3l1.4-1.9h5l-0.6-4.7v-3.6l-0.8-6.7l-9.7-4.7l0.6-1.7l-1.8-2.1l-1.6,0.7l-2.1,0.3l-3.9-1.8L243,448l1.6,1.9l-0.7,1.6
		l-3.4-0.3l-0.2-1.8l-2-2.7L237.2,446.4z"/><title>Ariège</title></a></g>
	<g><a href="https://cdn.rawgit.com/nicolasenault/routes_departements/de9f91762edf4f1141d2a38fa5c9e253dbfa0505/gers.pdf" target="_blank"><path id="Gers" class="st0" d="M207.9,401.9l-5.8,0.6l-1.6,2.8l-3.5,0.4l-3.3,0.6l-1.4-1.9l-3.1,3.1l-2.3-2l-1.4,2.9l0.2,2.5
		l-2.2,0.6l-1-1.4l-1-2.9l-2.8,2.3l-1.9-0.8l-2.2,0.4l-1.9,2.3l2.3,3.9l-1.6,1.6l0.6,3.3l-1.9,2.5l-1.4,3.7l1.6,2.8l4.9,0.3l1.9-1h3
		l-0.2,3.3l2.3,1.3l2.3,0.3l1.1,2.8l0.5,0.5l-0.3,1.8l-0.7,0.7l2.1,1.4l0.2,1.6h2.7l0.7-0.7h2.3l0.7,1.6h2.5l0.7,1.4h4.8l3.6,1.8
		l0.3-0.4l1.9-1.1l3.5-4.6l6.6,0.5l2.8,1.9l0.9-1.3l1.4-4.2l1.8-4.1l3.7-1.6l1.8-0.7l-0.5-1.6l-1.8-0.2l-0.7-1.8h-1.4l-2.3-2.3
		l0.2-1.6l-3-3l-0.5-1.9l-1.9,0.8l-0.5-1.1l1.3-1.9l-1.4-1.4v-2.5l-1.2-1.3l-3.9-0.2v-2.3l2.1-1.6V405l2.3-1.1l-1.3-0.7l-1.4,0.7
		h-2.8l-0.9-0.8l-0.5,0.2l-1,1L207.9,401.9z"/><title>Gers</title></a></g>
	<g><a href="https://cdn.rawgit.com/nicolasenault/routes_departements/de9f91762edf4f1141d2a38fa5c9e253dbfa0505/hautegaronne.pdf" target="_blank"><path id="Haute_Garonne" class="st0" d="M245,412.4l-2.8,1.1l-0.9,1.4l-1.1-1.2l-1.9-0.2l-0.4,1.8l-1.2,0.5l1.8,0.9l-1.2,1.9
		l-4.4,1.3l-1.9-2.3h-1.8l-1.4,0.9h-5.1l-0.5,0.2l0.5,1.9l3,3l-0.2,1.6l2.3,2.3h1.4l0.7,1.8l1.8,0.2l0.5,1.6l-1.8,0.7l-3.7,1.6
		l-1.8,4.1l-1.4,4.2l-0.9,1.3l-2.8-1.9l-6.6-0.5l-3.5,4.6l-1.9,1.1l-1.3,1.8l-1.4,2.1v1.3l-2.3,0.9l-1.8,3l-0.2,1.6l3.2,2.3l0.5,2.3
		l-1.1,1.8l2.1-0.7l1.1,0.9l0.9,3.7l-2.5,1.4l0.2,1.9l-1.3,1.2l-1.8-0.9h-2l0.3,10.5l7.9,0.5l0.4-9.6l2.7,0.4l4,2.3l1.7-1.5
		l-0.7-1.1v-3.5l1.8-2.1l4.6-1.3l0.7-2.6l-1.1-0.7l-0.2-3.4l4.1-2.5l2.3-0.2l2.3,0.7l1.9,1.8l1.3,0.2l1.1-1.8l-0.9-1.3l-1.6-0.5
		l-0.2-0.5l1.2-1.8l4.3-0.4l0.5-1l-0.7-1.3l-2.5-1.8l0.5-1.1l1.3-0.9l1.2,0.3l2,2.7l0.2,1.8l3.4,0.3l0.7-1.6L243,448l1.1,0.3
		l3.9,1.8l2.1-0.3l1.6-0.7l-0.4-0.4l2.5-1.1l0.5-3l3.1-1.4l-0.8-1.9l2.8-2.5l1.4,2.5l4.1-1.4l0.8-0.1l0.1-1.3V436l-2.1,0.4l-2.7-0.7
		l-2.3-2.8l-0.9-1.3l-4.6-1.9l-1.1-1.6l1.4-0.5v-1.9l-1.4-1.6l-1.8-2.8l-0.2-2.5l-0.5-0.3l-2.1-2.5l-0.9-2.6L245,412.4z"/><title>Haute Garonne</title></a></g>
	<g><a href="https://cdn.rawgit.com/nicolasenault/routes_departements/de9f91762edf4f1141d2a38fa5c9e253dbfa0505/tarnetgaronne.pdf" target="_blank"><path id="Tarn-et-Garonne" class="st0" d="M220.2,384.7l-1.4,4.5l2.2,2.3l-1,3.7l-1.2,1.4l0.8,2.3l-3.7,0.8l-2.9,0.8l0.8,2.7
		l-1.5,0.4l0.9,0.8h2.8l1.4-0.7l1.3,0.7l-2.3,1.1v1.8l-2.1,1.6v2.3l3.9,0.2l1.2,1.3v2.5l1.4,1.4l-1.3,1.9l0.5,1.1l2.5-1.1h5.1
		l1.4-0.9h1.8l1.9,2.3l4.4-1.3l1.2-1.9l-1.8-0.9l1.2-0.5l0.4-1.8l1.9,0.2l1.1,1.2l0.9-1.4l2.8-1.1l1.3,0.6l1-1.7l-1.8-1.9h3.3
		l1.1-1.9l2.3-2.1h-2.3l0.7-3l6-0.7l2.3-1.4l2.8-1.1l0.9-0.9l-1.1-2.8l1.6-3.2l-2.8-0.2l-0.3-4.4l-4.3,1.9l-2.8-0.7l-1.8,2.1l-3-0.4
		l-0.5,3.5H246l-0.9-1.9l-0.5-0.9l-1.6,0.2l-3,3.2l-3.7-0.2l-0.5-2.3v-1.8l-0.3-0.4l-1.3,1.4h-1.6l-1.8-1.9h-1.6l-1.1-2.1l1.4-1.6
		l-0.2-1l-2.5,0.1l0.3,0.7l-4.3,0.8L220.2,384.7z"/><title>Tarn-et-Garonne</title></a></g>
	<g><a href="https://cdn.rawgit.com/nicolasenault/routes_departements/de9f91762edf4f1141d2a38fa5c9e253dbfa0505/aveyron.pdf" target="_blank"><path id="Aveyron" class="st0" d="M294.7,353.4l-5.5,4.7v4.7h-1.4l-0.6,4.4l-1.4,0.6l-1.1,2.5h-6.1l-0.5-0.8h-2.8l-1.7,2.8
		l-0.6-0.1l-0.3,1.1l-1.3,1.4H268l-0.7,0.9l-1.8-0.2l-3.2,3.5l-1.1-0.3l-2.3,1.9l0.7,3.5l1.8,2.7l-1.4,1.4l0.3,4l2.8,0.2l-1.6,3.2
		l1.3,3.2l1.6-0.9l0.7,1.6l2.3-2.3l3.4-0.2l3.3,2.5l5.8,1.1l2.1,3.7l3,1.4l1.6,4.1l-0.2,1.6l1.9,3.6v1.9l3.5,4.6l3.4,1.8l2.1-0.5
		l1.1-1.4l1.6,0.4l3.7,2.3l0,0h1.6h3.3l-0.3-5.8v-1.9h1.7l3,1.7h3l-0.5-3.3l1.7-1.4l3.3-0.5V410l3.6-1.7l-0.8-3.8h-3l-2.8-0.6
		l-0.6-2.2l2.2-0.5v-2.8l2.2-1.9l-1.7-0.8l-4.7,0.8l0.3-2.2l-3.3-1.4l-0.8-6.6v-4.7l-2.8-1.9l0.3-3.9l-5.8-7.2l-0.6-5.5h-1.9
		l-0.8-5.5l-3.9,0.6l-0.5-3.6L294.7,353.4z"/><title>Aveyron</title></a></g>
	<g><a href="https://cdn.rawgit.com/nicolasenault/routes_departements/de9f91762edf4f1141d2a38fa5c9e253dbfa0505/tarn.pdf" target="_blank"><path id="Tarn" class="st0" d="M270.8,396.9l-3.4,0.2l-2.3,2.3l-0.7-1.6l-1.6,0.9l-0.2-0.4l-0.9,0.9l-2.8,1.1l-2.3,1.4l-6,0.7
		l-0.7,3h2.3l-2.3,2.1l-1.1,1.9h-3.3l1.8,1.9l-1,1.7l0.3,0.1l0.9,2.6l2.1,2.5l0.5,0.3l0.2,2.5l1.8,2.8l1.4,1.6v1.9l-1.4,0.5l1.1,1.6
		l4.6,1.9l0.9,1.3l2.3,2.8l2.7,0.7l2.1-0.4v2.5l-0.1,1.3l1.2-0.2l-0.3,1.4h3.9l3.6,1.1l0.3-3.6h1.7l6.1,1.1h5.8l4.4-1.4l1.1-3.6
		l-3-2.8l0.8-2.8l1.7-2.5l2.8,1.9l7.2-2.5l1.1-2.2l-3.7-2.3l-1.6-0.4l-1.1,1.4l-2.1,0.5l-3.4-1.8l-3.5-4.6v-1.9l-1.9-3.6l0.2-1.6
		l-1.6-4.1l-3-1.4l-2.1-3.7l-5.8-1.1L270.8,396.9z"/><title></title></a></g>
	<g><a href="https://cdn.rawgit.com/nicolasenault/routes_departements/de9f91762edf4f1141d2a38fa5c9e253dbfa0505/ain.pdf" target="_blank"><path id="Ain" class="st0" d="M383.3,262.6l-2.2,0.2l-1.4,2.5l-3.7,14.4l-0.5,1.2l-0.4,4.6L374,287v6.6l-0.6,1.5l3.8,2.3l1.5,0.2
		l2.3,2.1l0.4,3.4l2.6-0.8l4,1.2l0.1-0.8h1.9l2.8,2.6l2.6-1.3l1.3-3.8l1.3-1.5l1.7,0.2l1.7,1.5l0.9,2.8l7.8,9.6l2.3-1.7l0.4-3.6
		l2.6-0.4v-6.4l1.3-1.1l0.4-5.7l0.5,0.4l-0.1-2.1l-1.1-1.9l0.4-5.5l1.9,1.1l1.1-1.9l1.9-0.6l2-1.6h-2.1v-3.7l2.3-1.4l3.5-0.4l0.2-2
		l-1.2-0.8l2.9-3.7l-0.4-1.2l-3.3-1.8l-8.1,8.9h-5.7v-2.3l-3.1-1.6l-3.7,4.1l-2.9,0.4v-2.8l-2.5-1.2l-3.9-5.5l-3.5-1.4l-1.2-2.5
		l-2-0.4l-2,1.5l-1.6,0.4L383.3,262.6z"/><title>Ain</title></a></g>
	<g><a href="https://cdn.rawgit.com/nicolasenault/routes_departements/de9f91762edf4f1141d2a38fa5c9e253dbfa0505/isere.pdf" target="_blank"><path id="Isère" class="st0" d="M397.9,298.7l-1.3,1.5l-1.3,3.8l-2.6,1.3l-2.8-2.6H388l-0.2,2.8l2.8,2.3l-4.3,5.5l-5.5,1.3
		l-4.3,1.5l2.8,2.8l0.7,1.3l-4.3,2.1l-0.4,6.2l-0.1,0.1l1.2,2.5l3.4,1.1l2.3-0.8l2.8-1.9l3.6,3h3l2.1,3l-0.9,2.1l0.4,3l-1.1,3
		l0.4,1.1l1.5-0.4l3.4,1.1l4.5,1.3l1.9-1.3l0.8-1.5h0.7l0.2,15.9l1.1,1.1h2.8l2.5,1.5l1.9,1.5l1.9,0.2l1.3,1.1l3.5,0.4l0.3-0.6
		l-1.6-0.8v-2.3h4.9l1.6-1.6l-1-1.8l2.5-2l1.8,0.8l2.5-2.2l4.5,0.8l1.6-1.8l3.7,0.2V350l-1.6-0.8l-0.8-2.5l-4.1-0.4l-0.6-1l0.8-4.1
		l1.4-1.2l-1.1-1.5l-2.1-1.3l-1.3,1.3l0.4-1.7v-1.7l-1.7-1.7l0.9-4l1.9-1.1l-0.2-2.8l-4-4h-1.5l-1.1,1.5l-2.5-3.4l-1.5,0.2l-1.3,2.8
		l0.9,1.7l-0.7,0.7l-1.7-1.3l-4.9-1.1l-2.3-4.3v-1.7l-2.3-2.5l-0.3-1.1l-7.8-9.5l-0.9-2.8l-1.7-1.5L397.9,298.7z"/><title>Isère</title></a></g>
	<g><a href="https://cdn.rawgit.com/nicolasenault/routes_departements/de9f91762edf4f1141d2a38fa5c9e253dbfa0505/hautesavoie.pdf" target="_blank"><path id="Haute_Savoie" class="st0" d="M446.1,266.2l-4.5,0.8l-4.3,3.5l-1.2-1.8l-2.2,0.2l-2,4.3l0.2,1.8l2.1,1.8l-3.9,2.6
		l-2.5,2.3h-4.3l-2,1.6l-1.9,0.6l-1.1,1.9l-1.9-1.1l-0.4,5.5l1.1,1.9l0.1,2.1l1.6,1.3v5.5l3.8,0.6l1.5,2.8l3.4,0.4l0.6-1.3h1.7
		l3,3.2l1.1,1.1l3.4-0.7l0.8-1.7l0.8-3.4l1.9-1.5l1.5-4.4l1.9-1.3l1.5,0.4l0.4,1.3l-1.1,1.3l1.9,2.3h3.2l1.9,3.2l-0.4,1.1l1.9-1.3
		l1.5-1.7l1.3,0.2l0.1-3.4l6.7-2.8l0.8-1.9l-0.4-4.3l-4.3-4.5l-1.4,0.8v-1.8v-2.9l-3.7-1.8l-0.2-1.6l2.2-2.3v-2.7l-3.5-3.7l-0.2-2.5
		H446.1z"/><title>Haute Savoie</title></a></g>
	<g><a href="https://cdn.rawgit.com/nicolasenault/routes_departements/de9f91762edf4f1141d2a38fa5c9e253dbfa0505/loire.pdf" target="_blank"><path id="Loire" class="st0" d="M339.5,278l-3.5,0.6l-0.6,2.2l1.4,2.7l0.4,11.1l-4.7,0.2l-0.2,1.8l3.1,2.5l-1.8,1.8l-0.6,4.3
		l2.3,3.1l2.1,5.1l5.1,3.3l1.8,6.4l-3.7,3.5l0.6,2.3l5.5,1.8l4.3-3.5l2.1-0.2l6.3,2.7l-0.4,3.7l3.1-0.2l2.5,2.8l1.8-0.5l3.4-0.6
		l0.9-3.8l4.7-2.8l0.4-6.2l0.2-0.1l-2.3-0.3l-2.1,0.8l-1.7-1.1l2.1-2.5l-0.6-1.9l-6.6-1.1l-5.5-5.1v-1.7l1.3-1.1v-1.5l-1.5-0.9
		l1.3-1.9v-2.8l-2.5-2.3v-2.3l-1.7-1.7V293l-0.8-3.2l1.3-1.3l0.2-3.8h4l1.1-1.3l-1.3-2.1v-1.9l-1.1-0.8l-0.8,4h-2.2l-1.6,1.6
		l-1.2-1.2l-6.3-1l-2.3,1.4h-1.6l-0.4-1.4l-2.9-0.6l-0.2-3.1L339.5,278z"/><title>Loire</title></a></g>
	<g><a href="https://cdn.rawgit.com/nicolasenault/routes_departements/de9f91762edf4f1141d2a38fa5c9e253dbfa0505/rhone.pdf" target="_blank"><path id="Rhône" class="st0" d="M371.8,275.3l-2.1,0.2l-1.8,1.8l-1.2-1.6l-1.8,1.6l-2.4-1.6h-1.9l-0.8,0.6l-0.4,2.3l1.1,0.8v1.9
		l1.3,2.1l-1.1,1.3h-4l-0.2,3.8l-1.3,1.3l0.8,3.2v1.9l1.7,1.7v2.3l2.5,2.3v2.8l-1.3,1.9l1.5,0.9v1.5l-1.3,1.1v1.7l5.5,5.1l6.6,1.1
		l0.6,1.9l-2.1,2.5l1.7,1.1l2.1-0.8l2.3,0.3l4.1-2l-0.7-1.3l-2.8-2.8l4.3-1.5l5.5-1.3l4.3-5.5l-2.8-2.3l0.2-2l-4-1.2l-2.6,0.8
		l-0.4-3.4l-2.3-2.1l-1.5-0.2l-3.8-2.3l0.6-1.5V287l1.1-1.5l0.4-4.6l-0.7,1.6l-1.4-0.2l-0.8-3.9L371.8,275.3z"/><title>Rhône</title></a></g>
	<g><a href="https://cdn.rawgit.com/nicolasenault/routes_departements/de9f91762edf4f1141d2a38fa5c9e253dbfa0505/savoie.pdf" target="_blank"><path id="Savoie" class="st0" d="M417,293.8l-0.4,5.7l-1.3,1.1v6.4l-2.6,0.4l-0.4,3.6l-2.3,1.7l0,0l0.3,1.1l2.3,2.5v1.7l2.3,4.3
		l4.9,1.1l1.7,1.3l0.7-0.7l-0.9-1.7l1.3-2.8l1.5-0.2l2.5,3.4l1.1-1.5h1.5l4,4l0.2,2.8l-1.9,1.1l-0.9,4l1.7,1.7v1.7l-0.4,1.7l1.3-1.3
		l2.1,1.3l1.1,1.5l3.5-0.4l1.2,1.2l0.6,2.8l3.5-0.4l0.4-2.9l1.8-0.8l3.8,0.2l-0.1-0.1l5.8-2.3l2.2,1.4h2.2l0.2-2.3l2.5-1.4l1-1.2
		l5.1-2l0.6-3.3l-1-1.6l2.8-4.7l-2.5-1l-0.8-2.8l-5.3-3.1c0,0,0.3-6-0.2-7.1c0,0,0-0.1-0.1-0.1l0,0l0,0l0,0l0,0l0,0l0,0
		c-0.8,0.2-3.7,0.4-3.7,0.4l-2.9-3.3l0.1-3.2l-1.3-0.2l-1.5,1.7l-1.9,1.3l0.4-1.1l-1.9-3.2h-3.2l-1.9-2.3l1.1-1.3l-0.4-1.3l-1.5-0.4
		l-1.9,1.3l-1.5,4.4l-1.9,1.5l-0.8,3.4l-0.8,1.7l-3.4,0.7l-1.1-1.1l-3-3.2h-1.7l-0.6,1.3l-3.4-0.4l-1.5-2.8l-3.8-0.6v-5.5L417,293.8
		z"/><title>Savoie</title></a></g>
	<g><a href="https://cdn.rawgit.com/nicolasenault/routes_departements/de9f91762edf4f1141d2a38fa5c9e253dbfa0505/ardeche.pdf" target="_blank"><path id="Ardèche" class="st0" d="M375.3,328.5l-4.5,2.7l-0.9,3.8l-3.4,0.6l-1.8,0.5l0.1,0.1l-1.2,4.7l-2.8,1.2l-1.2,2l0.8,2.5
		l0.6,1.4h-2.9l-0.2,3.7l-3.1,0.2l-1.6,4.9h-4.7l-5.1,3.7l-2.8,4.5l0.5,0.6l1.4,7.2l3.3,3.6l-0.6,4.1l4.2,2.5v5.5l2.2-1.1l4.7,3.1
		l2.2,0.8l0.5-3.9l2.8-0.5l0.8,3l2.8-0.3l0.5-3l6.3,3.6l1-2.1l2.7-0.4l0.2-4.1l-0.6-0.9l-0.8-0.2V381l0.6-1.5l-1.1-1.7l0.6-3.8
		l2.6-3v-4.2l-1.1-4.9l1.9-0.4l0.4-2.1l1.9-3.6l1.1-2.8l-1.7-4.3l-1.1-3.4l-1.5-5.9v-8l-1.1-0.3L375.3,328.5z"/><title>Ardèche</title></a></g>
	<g><a href="https://cdn.rawgit.com/nicolasenault/routes_departements/de9f91762edf4f1141d2a38fa5c9e253dbfa0505/drome.pdf" target="_blank"><path id="Drôme" class="st0" d="M384.9,329.3l-2.8,1.9l-2.3,0.8l-2.3-0.7v8l1.5,5.9l1.1,3.4l1.7,4.3l-1.1,2.8l-1.9,3.6l-0.4,2.1
		l-1.9,0.4l1.1,4.9v4.2l-2.6,3l-0.6,3.8l1.1,1.7l-0.6,1.5v1.5l0.8,0.2l0.6,0.9l-0.2,4.1l2.6-0.4l1.2,1.4l-0.6,3.9l0.8,1l2.9-2.9
		l2.6-0.2l0.6-1.6l-3.3-0.4l-0.6-3.5l2.1-3.3l2.8-0.2l2.7,2.6l-2.7,3.7l0.8,1.4l3.9,0.4l2.5-2.2l-1.4,2.9l0.4,2.3l4.1,0.4l5.5,0.4
		l0.8,2.5l2.9,2.2l2.5,0.2l1.8-1.6l1-2.9l1.6,1.4l1.2,1.4l0.8-7.3l-1.9-0.4l-1.2-2.5l-6.6-1.8l-0.8-3.3l2.4-1.6l-2-1.4l0.4-1.8
		l3.1,0.2l2.7,1.4l2.2-2.5l-2.2-1.8l0.2-2.3l1.2-3.7l4.1-0.4l3.3-1.3l0.3-0.8l-3.5-0.4l-1.3-1.1l-1.9-0.2l-1.9-1.5l-2.5-1.5h-2.8
		l-1.1-1.1l-0.2-15.9h-0.7l-0.8,1.5l-1.9,1.3l-4.5-1.3l-3.4-1.1l-1.5,0.4l-0.4-1.1l1.1-3l-0.4-3l0.9-2.1l-2.1-3h-3L384.9,329.3z"/><title>Drôme</title></a></g>
	<g><a href="https://cdn.rawgit.com/nicolasenault/routes_departements/de9f91762edf4f1141d2a38fa5c9e253dbfa0505/charentemaritime.pdf" target="_blank"><path id="Charente-Maritime" class="st0" d="M149.3,270.6l-2.8,0.2l-6,3.6l1.4,1.3l-3.1,2.5l-0.4,2l-2.9,0.4l-1.6-1.8l-3.9-0.4
		l-0.4-2l-2.3-1.6L124,276l2.2,3.1h2.7l2.8,1.8l2.2,1.8l4.1-0.2l0.8,1.8l2.7,0.6l1,2.7l1.8,0.8l-0.2,2.2l-2.3-0.4l-0.8,1.2l1.8,2.5
		l-1,4.3l-2.3-0.2l0.2,2.7l0.6,1h-2.8l-0.4-1.6l1.8-2.3l-0.6-1.3l-1-0.8l-0.4-4.7l-3.3-0.4l-2.7-3.3l-0.4,6.8l4.5,3.3l0.4,3.7
		l0.8,4.3l0.4,4.3l2.3-0.2l4.1,3.3l2.8,1.6l0.2,1.9l2.2,0.4l6.3,6.3l1.5,6.8h5.8l1-1l0.2,2.9l5.1,0.6l0.8,6.3l2.8,0.2l4.5,4.5
		l2.3,0.4l2.8-1.4l1.9,1.4l1.6-3.3l1.6-2.7l-4.2-2.8l-1.3-1.7l-1.7-1.9l-4,0.7l-1.3-0.7l-0.2-1.1l2.1-0.8V329l-1.5-0.4l-1.1-0.8
		l2.6-2.1V324l-1.3-1.3l0.8-0.8l0.4-2.1l-1.5-1.5l-1.3-2.1l-2.3-2.1l-1.7-1.1l1.5-1.7l-0.8-0.2l-0.2-4.5l-1.7-0.7l2.3-1.3h2.8
		l1.3-1.1h2.3l0.4,1.1l2.1,0.2l1.5-0.6l0.4-4l1.7-6.2h0.1l-1.5-1.5l-0.4-2.1l-2.8-1.3l-3.6-2.5l-4.5,0.4l-2.8-3.6l-4-0.2l-3.2-2.3
		v-1.3l-2.1-2.3l-0.1-2.9l-2.9-2.2l-3.7,1.6L149.3,270.6z"/><title>Charente-Maritime</title></a></g>
	<g><a href="https://cdn.rawgit.com/nicolasenault/routes_departements/de9f91762edf4f1141d2a38fa5c9e253dbfa0505/correze.pdf" target="_blank"><path id="Corrèze" class="st0" d="M265.8,307.6l-0.8,2.1l-3.2,0.6l-1.3,2.1H259l-2.1-0.6l-1.5,2.5l-2.3,0.2l-1.5,2.8h-1.9
		l-1.5,1.5l-3.8-0.4l-1.3,2.1l-1.5-0.2l-2.6,3.2l-2.3-0.9l-1.1,2.2l0.8,2.2l2.2,1.8l-3.9,3.5v2.7l1.6,0.8l-1.6,2l2.2,1.8l-1.6,1.9
		l1.8,1.2l4.3-0.2l-0.2,4.3l1.6,2.6l0.6-0.1l4.2-1.9l5,2.2l3.8,5.5l2.2-0.3l3.3-3.3l1.1,1.9l2.2-2.2l3,0.8l0.1,0.7l2.5-1.8L270,349
		l-1.2-1.2l1.6-1.9h1.6l1-3.1l0.8-1.6l-0.6-3.5l2.5-3.5l3.5-2.2l0.2-5.5l1.8,1l2,2.2h1.9l1.2-1.4l-1-2.3l1-3.5l-0.6-3.3l-1.2-1.4
		V315l1.8-2.9l-0.4-2.8l-0.4-0.4l-2,1.5h-3.8l-1.3,1.9H276l-1.9-1.9l-0.9-1.3h-4.9l-1.1-1.5L265.8,307.6L265.8,307.6z"/><title>Corrèze</title></a></g>
	<g><a href="https://cdn.rawgit.com/nicolasenault/routes_departements/de9f91762edf4f1141d2a38fa5c9e253dbfa0505/creuse.pdf" target="_blank"><path id="Creuse" class="st0" d="M256.1,267.9L255,271l-3.5-0.2l-0.8-0.4l-2.3,0.2l-1.8-1.2l-3.4,3.9l0.1,2.9l-2.3,4.7l0.4,2.3
		l2.5,0.6l1.7,4.3l1.7,1.7l-0.6,8.1l3.6-1.1l1.5,1.9l-2.3,1.9v1.9l1.9,0.2l3.4-0.2l1.1-1.5h0.8l-0.4,2.6l2.8,1.3l2.6,1.7v1.1H260
		l0.4,2.5l1,0.6l0.3-0.4l3.2-0.6l0.8-2.1h1.5l1.1,1.5h4.9l0.9,1.3l1.9,1.9h2.3l1.3-1.9h3.8l2-1.5l-4.1-4.1l-0.4-1.8l3.7-2.2l2.2-1.2
		l0.6-2.8l2.3-1.8l-0.8-3.7l-1.6-1.9l-0.4-6.1l-2.2-5.1l-2.2-0.8l-1.6-2.8l-1.4,1.8l-1.3-1.8v-2.3l-2.3-3.3l-6.4,0.8l-3.7-1
		L256.1,267.9z"/><title>Creuse</title></a></g>
	<g><a href="https://cdn.rawgit.com/nicolasenault/routes_departements/de9f91762edf4f1141d2a38fa5c9e253dbfa0505/hautevienne.pdf" target="_blank"><path id="Haute_Vienne" class="st0" d="M239.5,270.8l-1.8,1.8l-4.9-0.4l-0.6-0.1l-3.7,0.7l-2.2,1.8v2.3l-4.3,0.2l-2.5,2.9l-1.6,1.2
		l1.3,1.6l-0.2,5.3l-1,1.8l1.6,1.8l2.7,0.2l0.6,2.7l0.2,1.8l-3.5,0.8l-1.8,0.6l0.4,4.9l-2.3,1.6l-2,0.6l-1,2.8l-1.6,0.2l-0.7,3
		l4.6,0.2l1,1.9l-0.8,2.2l1.8,2.3l1.3-0.4l1.4-2l6.3,0.6l1,3.9l4.3,0.6l1,1.3l-2.9,1.4l1.4,1l4.1,0.6l0.3,0.8l1.1-2.2l2.3,0.9
		l2.6-3.2l1.5,0.2l1.3-2.1l3.8,0.4l1.5-1.5h1.9l1.5-2.8l2.3-0.2l1.5-2.5l2.1,0.6h1.5l1-1.7l-1-0.6l-0.4-2.5h1.5V307l-2.6-1.7
		L256,304l0.4-2.6h-0.8l-1.1,1.5l-3.4,0.2l-1.9-0.2V301l2.3-1.9l-1.5-1.9l-3.6,1.1l0.6-8.1l-1.7-1.7l-1.7-4.3l-2.5-0.6l-0.4-2.3
		l2.3-4.7l-0.1-2.9l-0.5,0.6L239.5,270.8z"/><title>Haute Vienne</title></a></g>
	<g><a href="https://cdn.rawgit.com/nicolasenault/routes_departements/de9f91762edf4f1141d2a38fa5c9e253dbfa0505/vienne.pdf" target="_blank"><path id="Vienne" class="st0" d="M188.8,225.7l-3.7,3.9l-0.9,1.6l0.3,4.8l1.7-0.2l0.2,2.1l0.7,3.4l1.1,2.3l-1.3,1.5l0.6,1.1
		l-0.8,1.5v0.6l1.5,1.7v1.1l-0.7,1.7l-2.1,3.2l2.1,0.8l0.7,1.5l-0.9,2.3l-0.2,1.1l-1.3,2.1v1.5l0.8,0.2v4.5l1.5,1.1l-0.7,1.5
		l0.2,1.3l1.7,1.9l0.9-1.3v-1.1l1.7-0.8l1.3,0.8v3.2l-1.3,1.5l-1.1,2.5l1.5,2.3l3,0.8l-0.7,1.9l-2.8,0.5l2.6,3.1l3.4-0.2l3-1.1
		l3,1.7l1.1-0.8l-0.2-2.8l1.7-1.3l1.5,2.6l1.3,1.3l3.6-1.5l1.5-1.7h3.4l1.8,0.9l0.1-3.7l-1.3-1.6l1.6-1.2l2.5-2.9l4.3-0.2v-2.3
		l2.2-1.8l5.3-1l0.4-2.9l-2.1-1.2l-1.2-4.1l-3.1-0.4l-1.9-1.9l-3.7-2.9l0.8-2.3v-3.7l-3.5-3.5L219,246l-3.3-3.5l-1.2-4.7l-1.4-0.6
		l-1.6-2.2l-1.6,1l0.4,2.2l-5.1,1.2h-5.8l0.2-2.3v-3.7l-4.7-1.4v-2.3l-3.7-0.8l-0.8-3.1L188.8,225.7L188.8,225.7z"/><title>Vienne</title></a></g>
	<g><a href="https://cdn.rawgit.com/nicolasenault/routes_departements/de9f91762edf4f1141d2a38fa5c9e253dbfa0505/charente.pdf" target="_blank"><path id="Charente" class="st0" d="M206.3,284.9l-1.7,1.3l0.2,2.8l-1.1,0.8l-3-1.7l-3,1.1l-3.4,0.2l-2.6-3.1l-0.8,0.2l-3.4,1.7
		l-2.6,0.7v1.5l-1.5,1.7l0.4,1.1l-1.9,1.1l-1.7,6.2l-0.4,4l-1.5,0.6l-2.1-0.2l-0.4-1.1h-2.3l-1.3,1.1h-2.8l-2.3,1.3l1.7,0.7l0.2,4.5
		l0.8,0.2l-1.5,1.7l1.7,1.1l2.3,2.1l1.3,2.1l1.5,1.5l-0.4,2.1l-0.8,0.8l1.3,1.3v1.5l-2.6,2.1l1.1,0.8l1.5,0.4v0.4l-2.1,0.8l0.2,1.1
		l1.3,0.7l4-0.7l1.7,1.9l1.3,1.7l4.2,2.8l0.6-1l3.9,0.4l1.9-1.8l3.5-3.5l0.2-6.8l9.2-6.3l0.2-4.7l2.8-0.4l1.8-3.1h1.1l0.7-3l1.6-0.2
		l1-2.8l2-0.6l2.3-1.6l-0.4-4.9l1.8-0.6l3.5-0.8l-0.2-1.8l-0.6-2.7l-2.7-0.2l-1.6-1.8l1-1.8l0.1-1.6l-1.8-0.9h-3.4l-1.5,1.7
		l-3.6,1.5l-1.3-1.3L206.3,284.9z"/><title>Charente</title></a></g>
	<g><a href="https://cdn.rawgit.com/nicolasenault/routes_departements/de9f91762edf4f1141d2a38fa5c9e253dbfa0505/deuxsevres.pdf" target="_blank"><path id="Deux-Sèvres" class="st0" d="M181.7,229.4l-5.3,0.2l-4.9,1l-5.3,0.4v2.7l-2.7,1.8l-6.1-1.4l-4.1,1.8l1.9,2.8v2.3
		l4.7,3.9l-1.2,2.5l3.1,3.5l-1.4,1.8l1.9,2.9l0.6,5.5l-1.2,1.6l1.4,2.3l-1.4,2.6l0.2,1.6l1.6-1.2l1.9,2l-2.7,1.8l-1,1.2l-2.2,0.6
		l-2.5,1.2l-0.2-0.2l0.1,2.9l2.1,2.3v1.3l3.2,2.3l4,0.2l2.8,3.6l4.5-0.4l3.6,2.5l2.8,1.3l0.4,2.1l1.5,1.5l1.8-1l-0.4-1.1l1.5-1.7
		v-1.5l2.6-0.7l3.4-1.7l3.6-0.6l0.7-1.9l-3-0.8l-1.5-2.3l1.1-2.5l1.3-1.5v-3.2l-1.3-0.8l-1.7,0.8v1.1l-0.9,1.3l-1.7-1.9l-0.2-1.3
		l0.7-1.5l-1.5-1.1v-4.5l-0.8-0.2v-1.5l1.3-2.1l0.2-1.1l0.9-2.3l-0.7-1.5l-2.1-0.8l2.1-3.2l0.7-1.7v-1.1l-1.5-1.7V248l0.8-1.5
		l-0.6-1.1l1.3-1.5l-1.1-2.3l-0.7-3.4l-0.2-2.1l-1.7,0.2l-0.3-4.8l-0.4,0.7l-1.4-1.2L181.7,229.4z"/><title>Deux-Sèvres</title></a></g>
	<g><a href="https://cdn.rawgit.com/nicolasenault/routes_departements/de9f91762edf4f1141d2a38fa5c9e253dbfa0505/cotedarmor.pdf" target="_blank"><path id="Côtes_d_x27_Armor" class="st0" d="M69.8,123.2l-1.8,1.4l-4.5,0.6l-1,1.4l-3.1-2.3l-4.1,2.8l1.6,2.1l-2.7,3.7l-0.1-0.1
		l-1.1,5.3l2.4,0.2l-0.2,2.1l1.8,1.1l-1.6,1.6l-1.1,0.8l0.2,1.9l2.4,0.8l-2.3,0.7v2.4l1.5,1.9l0.3,5.7l-1,1l0.8,2.9l3.1,0.8l0.3,1.6
		l1.9,0.2l1.6-1.1l1,1l3.7,1.6l3.1-1.6l0.8-1.6l2.6-0.2l2.9,2.6l2.8-0.7l2.4,2.4h1.1l1.1,1.4h2.3l0.8-1.1l1,2.1l2.4,1l3.1-1.9v-2.1
		l2.3-0.8h1.4l1.8,3.3l3.9,0.3l1.9-2.4l2.1-4.5l2.8-1l1.4-2.1l1.5,1.4l3.1-0.6l1-8.9l1-3.6l-1-1.9l-1.6-0.6l-1.1-5.9l-1.3,1.4
		l-3.7-0.4l-0.4,2.2l-2.3,0.2l-0.2-2.7l-2-0.6l-1.4,1.6v-3.9l-2.3,1.8l-3.5-0.6l-1.2,2.3l-7.2,3.9v2h-1.6V142l-4.1-1.9l0.4-3.5
		l-3.7-2.7v-3.3l-2.8-0.6l0.2-3.1l-2.1-0.2l0.2-2.2h-3.9l-0.6,1.9L69.8,123.2z"/><title>Côtes d'Armor</title></a></g>
	<g><a href="https://cdn.rawgit.com/nicolasenault/routes_departements/de9f91762edf4f1141d2a38fa5c9e253dbfa0505/vendee.pdf" target="_blank"><path id="Vendée" class="st0" d="M138.5,229.6l-1.1,2.1h-3.2l1.3,1.3l-1,3.2l-2.9,1l-1.1-0.8l0.5-3.2l-0.8-1.8h-1.8l-1.3,1.4
		l0.6,4.5l1.5,2.1l-1.5,1.6l-2.7-0.5l-4-1l-1.1-3.1l-2.6-0.3l-3.4-1.5l-0.8-1.9l-3.7-2.4l-5.8,7.5l-0.2,4.7l6,5.8l-0.2,1.8h1.8
		l3.7,11.2l3.9,1.9l3.9,3.9h4.5l1.8,3.9h4.3l1.9,2.9l4.3,2.2l0.2-2.8l1.1,1l6-3.6l2.8-0.2l1.2,3.1l3.7-1.6l3.1,2.3l2.5-1.2l2.2-0.6
		l1-1.2l2.7-1.8l-1.9-2l-1.6,1.2l-0.2-1.6l1.4-2.6l-1.4-2.3l1.2-1.6l-0.6-5.5l-1.9-2.9l1.4-1.8l-3.1-3.5l1.2-2.5l-4.7-3.9v-2.3
		l-1.9-2.8l0.4-0.2l-2.7-2.3h-5l-1.6-1l-2.3-0.3l-2.6-2.4L138.5,229.6z"/><title>Vendée</title></a></g>
	<g><a href="https://cdn.rawgit.com/nicolasenault/routes_departements/de9f91762edf4f1141d2a38fa5c9e253dbfa0505/manche.pdf" target="_blank"><path id="Manche" class="st0" d="M119.6,77.5l-0.8,2l4.1,3.3v4.3l-1.6,1.9l1,1l0.6,0.4l-0.4,3.7l1.4,3.1l4.5,5.1l1,4.5l1,1.4v7
		l2.3,4.7v5.5l-2.5,5.1l2.7,7l4.3,1l0.4,2l-2.1,1h-3.7l0.6,2.5l1.2,3.7l3.3,2.9l1.6,0.4l1.6-2.1l1.8-0.2l2.1-2.5l2,1.6h2.3l1.6,0.8
		v0.4l3.3,0.4l2-1.6l2.9,1.2l0.1,0.1l3.3-2.8l1.1-3.7l-0.3-1.6l0.5-1.9l-1.9-1.9l-5-3.3l-3.7-0.3l-3.7-4.7l3.1-1.1l1.3-2.4l-1.6-1.5
		l1.4-1.3l1.4,1.1l2.6-1.6l1.6-2.6l0.6-2.6l-1.1-2.3l0.7-0.8l-1.5-2.4l1.6-2.1l-1.3-1.6l-1.6,2.1l-2.3-1.3l-3.7-3.7l-0.2-1.6
		l1.1-1.1l-0.3-2.2l-1.8,0.5l-0.2-4.7l-5.1-6l1.6-3.9h2.2l-1.9-5.3l-8.4-0.4l-4.5,3.1l-5.1-3.3L119.6,77.5z"/><title>Manche</title></a></g>
	<g><a href="https://cdn.rawgit.com/nicolasenault/routes_departements/de9f91762edf4f1141d2a38fa5c9e253dbfa0505/morbihan.pdf" target="_blank"><path id="Morbihan" class="st0" d="M56,160.6l-3.3,1.6h-2.3l-2.4,1.9l0.2,1.4l1.4,3.7l0.8,2.9l5,0.8l2.4,1.9l1-1.2l1.6,2.1l-0.8,1
		l-0.2,2.9H58l-1.1,1.8h-2.3l-0.9,3.8l2.2,3.5l3.1,0.8l1.2-1.8l-0.6,2.1l2.7,1.2l3.5,3.5l1.2,2.2l-0.4,2.5l-0.4,2.6l2.3,1.8l1.2-1.4
		l-1.2-1.6v-3.5l2.3,0.6l0.8-2.3l0.6,1.4l2.5,2.2l1.2-2l-1.2-2.7l2.2,2.9l2.7-0.4l-0.6-1.4l2.5,0.6l1.9,2.3l-1,1.6l-2.5-0.8
		l-2.9-1.4l-1.6,2l2.3,0.8l1.8,2.7l10.6-1l2.7,0.6l-1.3,1.2l0.2,1.8l0.4,0.3l0.8-0.2l1.8-1.8l1.2,1.3H99l3.7-1.9l5.5-2.2l0.2-5.5
		l1.2-0.6l-2.1-3.9l1.8-1.4l-0.3-1l-1.1-0.7l1.8-0.8l1.6-1.9l-0.2-1.9H109l-0.5-1.9l1.5-1.9l-1.6-2.9l-2.4-1.5h-2.8l-1-0.3v-1.3
		l1.4-1.3l0.8-3.2l-0.5-2.1l-0.7,0.8l-3.9-0.3l-1.8-3.3h-1.4l-2.3,0.8v2.1l-3.1,1.9l-2.4-1l-1-2.1l-0.8,1.1h-2.3l-1.1-1.4H82
		l-2.4-2.4l-2.8,0.7l-2.9-2.6l-2.6,0.2l-0.8,1.6l-3.1,1.6l-3.7-1.6l-1-1l-1.6,1.1l-1.9-0.2l-0.3-1.6l-3.1-0.8L56,160.6z"/><title>Morbihan</title></a></g>
	<g><a href="https://cdn.rawgit.com/nicolasenault/routes_departements/de9f91762edf4f1141d2a38fa5c9e253dbfa0505/finistere.pdf" target="_blank"><path id="Finistère" class="st0" d="M40.7,129.1l-2.1,2.3l-2.3-1l-4.3,0.4l-0.8,1.9l-2.5,0.6l-0.4-2.2l-4.5,0.6v1.4l-3.1,0.2
		l-1.4-1l-1.6,0.8l-0.4,2.3l-5.3,0.2L9.2,139l2.3,1.8l-3.1,2.6l1,1.8l-0.8,4.3l3.1,0.4l1.2-1.2l0.6,0.8l7.4-1l4.9-3.5l-4.3,4.1
		l0.4,1.9l3.9-1.8L25,152l4.3,0.2l-0.2,1.2l-4.7-0.2l-3.7-1l-4.5-2.2l-2.7,3.1l3.5,1.2l-0.2,5.3l1-0.8l2.2-3.3l4.1,2.3l2,0.4
		l0.8,3.1l-1.2,2.1l-2.5-0.2h-2.3l-3.9,0.6l-6.7,0.4L8.8,166l1.9,1.2l2.2-0.2l1.8,1.6l2.5-0.2l4.1,4.7l1,5.1l-1.4,2.8l4.1,0.8
		l4.5-0.2l1-1.8l-1.8-2.3l1.8,0.8l1.8-0.2l3.1,1.8l1.9-0.4v-3.3l0.8,3.3l2.5,4.1l5.5,0.4l0.2-1.2l1.3,1.9l3.3,0.6h2.5l0.2,0.2
		l0.9-3.8h2.3l1.1-1.8h1.4l0.2-2.9l0.8-1l-1.6-2.1l-1,1.2l-2.4-1.9l-5-0.8l-0.8-2.9l-1.4-3.7l-0.2-1.4l2.4-1.9h2.3l3.3-1.6l-0.7-2.5
		l1-1l-0.3-5.7l-1.5-1.9v-2.4l2.3-0.7l-2.4-0.8l-0.2-1.9l1.1-0.8l1.6-1.6l-1.8-1.1l0.2-2.1l-2.4-0.2l1.1-5.3l-3.2-1.9l-5.5,0.2v3.9
		h-1.6l-0.4-1.8l-2.3,0.4L40.7,129.1z"/><title>Finistère</title></a></g>
	<g><a href="https://cdn.rawgit.com/nicolasenault/routes_departements/de9f91762edf4f1141d2a38fa5c9e253dbfa0505/illeetvilaine.pdf" target="_blank"><path id="Ille-et-Vilaine" class="st0" d="M116.3,135.9l-1.9,2.1l1.1,5.9l1.6,0.6l1,1.9l-1,3.6l-1,8.9l-3.1,0.6l-1.5-1.4l-1.4,2.1
		l-2.8,1l-2.1,4.5l-1.3,1.6l0.5,2.1l-0.8,3.2l-1.4,1.3v1.3l1,0.3h2.8l2.4,1.5l1.6,2.9l-1.5,1.9l0.5,1.9h2.1l0.2,1.9l-1.6,1.9
		l-1.8,0.8l1.1,0.7l0.3,1l-1.8,1.4l2.1,3.9l3.9-2.1l12.1-0.6l0.8-2.2l2-1.9l4.3-0.6l0.2-2.2l2.9,0.4l1.8,2.3l3.9,1l0.8-1.6l1-3.5
		l2.5-6.3l1.4-0.8l3.3,0.4v-5.3l-1.4-1.4v-5.7l-0.6-1.9v-3.1l2-2v-3.9l-1-0.8l0.2-5.5l-1.6-0.8h-2.3l-2-1.6l-2.1,2.5l-1.8,0.2
		l-1.6,2.1l-1.6-0.4l-3.3-2.9l-1.2-3.7l-0.6-2.5H122l-3.5-2.2l2.3-3.1L116.3,135.9z"/><title>Ille-et-Vilaine</title></a></g>
	<g><a href="https://cdn.rawgit.com/nicolasenault/routes_departements/de9f91762edf4f1141d2a38fa5c9e253dbfa0505/loireatlantique.pdf" target="_blank"><path id="Loire_Atlantique" class="st0" d="M132.9,185.8l-0.2,2.2l-4.3,0.6l-2,1.9l-0.8,2.2l-12.1,0.6l-5.1,2.7l-0.2,5.5l-5.5,2.2
		l-3.7,1.9h-3l-1.2-1.3l-1.8,1.8l-0.8,0.2l1,0.7l-3.7,3.3l0.8,0.8l0.8,1.6l-2,2.8l2.2,1.2l3.7,0.8l0.4-1.6l2.2,2.8h3.5l2.5-2.8h3.3
		l-3.5,1.8l0.2,2l0.8,1.8l-2.2,2.2h-2.3l0.4,2.9l4.3-0.8l5.1,4.7l-0.3,0.3l3.7,2.4l0.8,1.9l3.4,1.5l2.6,0.3l1.1,3.1l4,1l2.7,0.5
		l1.5-1.6l-1.5-2.1l-0.6-4.5l1.3-1.4h1.8l0.8,1.8l-0.5,3.2l1.1,0.8l2.9-1l1-3.2l-1.3-1.3h3.2l1.1-2.1l1.1,0.2l2.6,2.4l1.9,0.3l0.1-2
		l-1.6-2.1h-1.4l-0.5,0.2l-1-0.5l0.8-0.8v-1.5l1.6-0.5l1-2.3l-0.8-0.8l-0.2-2.8H140l-2.1-2.6v-1.9l2.3-1.2l4-0.8l6.3,0.2l1.9-1.3
		l-0.7-4l-2.9-2.7l-3.5,0.5l-1-0.8l-0.2-2.9l2.6-2.3l-1.9-2.4l-1.3-3.4l-2.1-1.3v-2.3l-0.2-0.7l-3.7-0.9l-1.8-2.3L132.9,185.8z"/><title>Loire Atlantique</title></a></g>
	<g><a href="https://cdn.rawgit.com/nicolasenault/routes_departements/de9f91762edf4f1141d2a38fa5c9e253dbfa0505/maineetloire.pdf" target="_blank"><path id="Maine-et-Loire" class="st0" d="M141.9,188.7l-0.4,0.9l-0.3-0.1l0.2,0.7v2.3l2.1,1.3l1.3,3.4l1.9,2.4l-2.6,2.3l0.2,2.9
		l1,0.8l3.5-0.5l2.9,2.7l0.7,4l-1.9,1.3l-6.3-0.2l-4,0.8l-2.3,1.2v1.9l2.1,2.6h2.1l0.2,2.8l0.8,0.8l-1,2.3l-1.6,0.5v1.5l-0.8,0.8
		l1,0.5l0.5-0.2h1.4l1.6,2.1l-0.1,2l0.4,0.1l1.6,1h5l2.7,2.3l3.7-1.6l6.1,1.4l2.7-1.8V231l5.3-0.4l4.9-1l5.3-0.2l0.6,1.4l1.4,1.2
		l1.3-2.3l3.7-3.9h1.5l2.2-8l3.1-3.7l-0.2-4.3l2-2.6V206l-1-1.2l0.6-1.3l-2.7-1l-8.2-5l-7.6-2.3l-2.9-0.2v-1.9l-1.8-1.5h-1.9
		l-3.6-1.1l-2.3,2.3l-5,0.2l-2.3-1.3l-5.8-1.8l-1.3,1.6l-3.2-2.1h-2.9L141.9,188.7z"/><title>Maine-et-Loire</title></a></g>
	<g><a href="https://cdn.rawgit.com/nicolasenault/routes_departements/de9f91762edf4f1141d2a38fa5c9e253dbfa0505/sarthe.pdf" target="_blank"><path id="Sarthe" class="st0" d="M202.4,151.9l-5.3,0.2l-5.3,4.9l-2.8-0.2l-3.7,1.2l-1.1,1.9l-0.5,4.2l0.3,2.6l-2.9,2.4l-0.8,1.6
		l0.7,1.5l-0.8,1.9l0.3,0.8l-3.2,0.3l-0.5,1.4l1.4,3.6l-0.2,1l-1.3,1.1l-2.8,0.2l-0.3,1l0.7,1v5.8l-0.6,1.5l1.8,1.4v1.9l2.9,0.2
		l7.6,2.3l8.2,5l2.7,1l1.3-2.6l3.9,2.8h2.2l-1.2-3.9l2.4,1.6l1.3-2l5.7-1.6l-1-2.3l1.4-1.8l2.9-1.2l2.7-3.5v-3.7h2l0.8-2.7l0.2-4.1
		l-1.9-1.8l1.6-2.7l2.3-2.9l-2.7-1.9l-2.5-0.4l-2.8-4.1h-0.8l-0.2,1.9l-0.2-1.3h-4.1l-2-2.9L205,161l-1-7L202.4,151.9z"/><title>Sarthe</title></a></g>
	<g><a href="https://cdn.rawgit.com/nicolasenault/routes_departements/de9f91762edf4f1141d2a38fa5c9e253dbfa0505/mayenne.pdf" target="_blank"><path id="Mayenne" class="st0" d="M182.5,146.4l-1.9,0.2l-0.8,1.9l-2.9,1.2l-5.3-0.8l-5.3,3.1l-1.9-1.4l-2.9,2l-2.2-1.6l-1.4-2.3
		l-2.9-1.2l-2,1.6l-3.3-0.4l-0.2,5.1l1,0.8v3.9l-2,2v3.1l0.6,1.9v5.7l1.4,1.4v5.3l-3.3-0.4l-1.4,0.8l-2.5,6.3l-1,3.5l-0.3,0.7
		l3.5,0.7h2.9l3.2,2.1l1.3-1.6l5.8,1.8l2.3,1.3l5.2-0.2l2.3-2.3l3.6,1.1h1.9l0,0l0.6-1.5v-5.8l-0.7-1l0.3-1l2.8-0.2l1.3-1.1l0.2-1
		l-1.4-3.6l0.5-1.4l3.2-0.3l-0.3-0.8l0.8-1.9l-0.7-1.5l0.8-1.6l2.9-2.4L184,164l0.5-4.2l1.1-1.9l3.7-1.2h-0.6l-1-3.5l-2.5-1
		l-0.8-4.3L182.5,146.4z"/><title>Mayenne</title></a></g>
	<g><a href="https://cdn.rawgit.com/nicolasenault/routes_departements/de9f91762edf4f1141d2a38fa5c9e253dbfa0505/calvados.pdf" target="_blank"><path id="Calvados" class="st0" d="M202.7,97.8l-4.6,0.8l-7.4,4.3l-8.4,3.3l-6.7-3.7l-16-2.3l-3.7-1.9l-5.8,1.5l0.3,2.2l-1.1,1.1
		l0.2,1.6l3.7,3.7l2.3,1.3l1.6-2.1l1.3,1.6l-1.6,2.1l1.5,2.4l-0.7,0.8l1.1,2.3l-0.6,2.6l-1.6,2.6l-2.6,1.6l-1.4-1.1l-1.4,1.3
		l1.6,1.5l-1.3,2.4l-3.1,1.1l3.7,4.7l3.7,0.3l2.8,1.8l3.9-1.2l2.9-3.4l4,1.1l3.5-2.4l2.1-0.8l2.3,2.3l3.7-0.7l3.2,1.8l4-1.3l3.7-2.8
		l2.4-2.8l1.6-0.3l0.5,2.1l1.3-0.3l0.2-1.5l3.7-0.6l1.3,0.8l4-0.9l0.7-1.9l-0.2-1.8l-2-0.8l-0.2-1.4l1.8-1.2l0.2-2l-1.2-4.7
		l-2.3-3.3l2-1.2v-0.8l-2-0.6L202.7,97.8z"/><title>Calvados</title></a></g>
	<g><a href="https://cdn.rawgit.com/nicolasenault/routes_departements/de9f91762edf4f1141d2a38fa5c9e253dbfa0505/orne.pdf" target="_blank"><path id="Orne" class="st0" d="M206.8,124.7l-4,0.9l-1.3-0.8l-3.7,0.6l-0.2,1.5l-1.3,0.3l-0.5-2.1l-1.6,0.3l-2.4,2.8l-3.7,2.8
		l-4,1.3l-3.2-1.8l-3.7,0.7l-2.3-2.3l-2.1,0.8l-3.5,2.4l-4-1.1l-2.9,3.4l-3.9,1.2l2.2,1.4l1.9,1.9l-0.5,1.9l0.3,1.6l-1.1,3.7
		l-3.3,2.8l1.3,2.2l2.2,1.6l2.9-2l1.9,1.4l5.3-3.1l5.3,0.8l2.9-1.2l0.8-1.9l1.9-0.2l1.8,1.6l0.8,4.3l2.5,1l1,3.5l3.3,0.2l5.3-4.9
		l5.3-0.2l1.6,2.1l1,7l3.3,1.2l2,2.9h4.1l0.2,1.3l0.2-1.9h0.8l2.8,4.1l2.1,0.3v-4.6l-1.3-1.8l-0.4-1.6l2.9-1.8l2.9-0.6l1.9-2.3
		l-0.4-7.2l-4.1-3.5l-0.2-3.3l-3.5-2.3l1.4-1.9l-0.8-2.9l-2.7-1l-2-2l-1.2-2.7l-5.5-0.2l-1.6-2L206.8,124.7z"/><title>Orne</title></a></g>
	<g><a href="https://cdn.rawgit.com/nicolasenault/routes_departements/de9f91762edf4f1141d2a38fa5c9e253dbfa0505/eureetloir.pdf" target="_blank"><path id="Eure-et-Loir" class="st0" d="M247.2,126.1l-1.2,1v3.1l-3.9,1.9v2.9l-1.2,1.4H236l-2.3-1l-7.1,3.7h-2.7l-2.8,2.7l0.7,0.4
		l0.2,3.3l4.1,3.5l0.4,7.2l-1.9,2.3l-2.9,0.6l-2.9,1.8l0.4,1.6l1.3,1.8v4.6l0.4,0.1l2.7,1.9l-1,1.3l1.9,1l3.1-0.6h1.8l-0.1,0.8
		l-1.7,1l1.1,0.8h2.8l1,2.3l1.7,1l1.3,2.8l4.3,1.1l2.7-0.3l2.4-2.3l2.1,0.6l0.5-1.2l-0.1-1.3l1.1-0.8l1.8,1.1l1.1-0.8V176l1.5-1
		l1.4,0.6l1.3,1.4l2.3-1.3h2.4l1.7-1.8l1-3.6l1.5-0.3l-0.4-3.7l1.8-1.5l-0.6-1.1l0.2-0.4l-0.5,0.1l-0.4-5.3l-0.4-0.6l-0.4-2.5
		l-4.1-0.8l-1.8-2.2l-0.6-4.3l-2.3-0.4l-0.4-2.2l-2.7-1.9l-1.4-3.3l1.4-2.3l-1.4-1.6v-1.9l0.8-2.2l-1.6-1.6l-0.6-2.3L247.2,126.1z"
		/><title>Eure-et-Loir</title></a></g>
	<g><a href="https://cdn.rawgit.com/nicolasenault/routes_departements/de9f91762edf4f1141d2a38fa5c9e253dbfa0505/yonne.pdf" target="_blank"><path id="Yonne" class="st0" d="M318.4,157.3l-1.8,1.3l-7.6-0.4l-3.5,1.8l-1.4,2.9l1.6,1.8l-2.3,2.8l-1.8,2.1l3.5,3.3l1,3.1
		l2.6,2.7v3.5l-5.1,4.3l1.8,2l-0.4,2.9l-2.8,2h-3.9l0.6,2.2l2.5,3.5l0.6,3.1l0.6,2.2l-1.2,0.3l2.5,0.6h1.8l1-1.5h1.3l1.4,1.3
		l-0.3,1.6l1.3,0.8h1.8l2.5,1.7l1.1-0.6l1.1,1l1.1-0.3l1.9-1.3l1.8,0.6l1.3-0.3v-3.5l0.7,0.1l0.4,1.8l2.3,1.4v2.1l3.2,0.1l4.2,3.9
		l2.7,0.1l-0.2-1.3l1.1-1.7l1,1.3l-0.8,1.4l0.4,1.3l1.5-1h1.8l-0.2,2.8l1.7,1.1l1.3-0.6l3.1-2.1l-0.2-0.4l-1.8-1.1l-0.1-2l2-1
		l0.8-1.1l-0.6-1v-2.3l1.5-2.3l2.3-4.8l0.4-2.1l1.4-0.6l0.2-0.4l-0.7-0.6v-1.7l2.3-1.7l0.6-2.8l-1-1.7h-1.6l-0.4-0.4v-2.4l2-1.4
		l-0.2-1.4l-0.3-1.4l-1,2.2l-1.4-0.2l-1.2-2.2l-3.9,2l-7.8-0.4l-1-2.2l-2.2-2.9l-0.4-3.5l-3.1-3.7l-2,1.4l-3.5-2.7l0.6-5.3l-5.1-5.3
		h-2.3L318.4,157.3z"/><title>Yonne</title></a></g>
	<g><a href="https://cdn.rawgit.com/nicolasenault/routes_departements/de9f91762edf4f1141d2a38fa5c9e253dbfa0505/hautesaone.pdf" target="_blank"><path id="Haute_Saône" class="st0" d="M423.5,175.5l-3.7,0.6l-0.6,1.9l-2,1.4l-1.3-1.6l-1,0.6l0.8,1.2l-1.9,1.2l0.6,1.6l-2.2,0.8
		v2.5h-2.8l-0.2,1.6l-2.7,0.6l0.2,2.3l1.8,0.2l-1,1.2l-0.6,3.9h-1.8l-2.9,1.2l-3.1-1.2l-2.7,1.2v2l2.1,0.4l1.6,3.1l0.2,1.6l-2.5,2.9
		l-1.2,0.4l-0.8,1l2.2,1l0.4,3.1l1.8,0.2l0.2,3.9l0.8,0.8l0.1,0.6l1.5,0.4l1.7,1.4h2.5l1-1l1.7,0.1l1.8,0.1l3.9-3.2h1.1l1.3-1
		l4.1,0.1l3.1-2.5l2.3-0.4l0.8-2.1l1.8-0.6l1.8-3.1l2.5-2l2.7-0.4l2,1.4l3.7-0.4v-2l1.5-0.8l1.2-1.6h2.3l1.3-1.3l0.5-3.1v-1.9
		l-0.8-3v-2.5l1.5-1.1l1.8-0.9l-0.2-0.4l-6.3-3.3l-1.8-2l-1.8-1.2l-1.6,0.8l-0.2,1.2l-1.6,1h-1l-2.9-3.3h-4.1l-1.8,1.4l-1.6,0.2
		l-2.5-1.9l0.2-2.2L423.5,175.5z"/><title>Haute Saône</title></a></g>
	<g><a href="https://cdn.rawgit.com/nicolasenault/routes_departements/de9f91762edf4f1141d2a38fa5c9e253dbfa0505/seinemaritime.pdf" target="_blank"><path id="Seine_Maritime" class="st0" d="M241.9,61.5l-1.3,1.6l-8.4,6.4l-14.8,3.7l-9.8,3.5l-8,4.3l-4.7,7l-1,5.5l3.9,2.9l5.7,1.2
		l-0.9,0.2V98l4.4-0.6l2.3-2.4l1.7-0.4l1.9,3.4l2.7-0.3l1.1,1.9l4.8-0.3l4.8,3.4l-3.1,1l2.3,1.7h1.4l1.3,2.7h2.3l0.7-1.7l-1.7-1.1
		l4.8-1.4l5-0.6l1.3-3.7l2.4-2.1l4.5-0.1l5.2,2.7l3.1,0.3l0.5-1.6l1.4-2.6l0.8-1.3h-2v-3.3l-1.2-1.9l0.8-3.9l0.8-2h-1.6l0.8-1.9
		l1.9-2.3l-1.9-3.5l-0.6-3.5l-8.6-8.4l-1-1.9l-2.2,0.2L241.9,61.5z"/><title>Seine Maritime</title></a></g>
	<g><a href="https://cdn.rawgit.com/nicolasenault/routes_departements/de9f91762edf4f1141d2a38fa5c9e253dbfa0505/eure.pdf" target="_blank"><path id="Eure" class="st0" d="M211,94.6l-1.7,0.4l-2.3,2.4l-4.4,0.6l0.9,7.3l2,0.6v0.8l-2,1.2l2.3,3.3l1.2,4.7l-0.2,2l-1.8,1.2
		l0.2,1.4l2,0.8l0.2,1.8l-1.6,4.5l1.6,2l5.5,0.2l1.2,2.7l2,2l2.7,1l0.8,2.9l-1.4,1.9l2.8,1.9l2.8-2.7h2.7l7.1-3.7l2.3,1h4.9l1.2-1.4
		v-2.9l3.9-1.9v-3.1l1.1-0.9l-0.1-0.9l1-1l-1.8-0.4v-1.6l-1-1.6l0.8-1l5.5-1.6l1.4-2.3l1.2-4.3l1.4-1.8l0.3-2.3l1.8,1l1.4-0.4
		l-1-1.6l-0.6-4.5l-1.8-1.6v-0.1l-3.1-0.3l-5.2-2.7l-4.5,0.1l-2.4,2.1l-1.3,3.7l-5,0.6l-4.8,1.4l1.7,1.1l-0.7,1.7h-2.3l-1.3-2.7
		h-1.4l-2.3-1.7l3.1-1l-4.8-3.4l-4.8,0.3l-1.1-1.9l-2.7,0.3L211,94.6z"/><title>Eure</title></a></g>
	<g><a href="https://cdn.rawgit.com/nicolasenault/routes_departements/de9f91762edf4f1141d2a38fa5c9e253dbfa0505/indreetloire.pdf" target="_blank"><path id="Indre-et-Loire" class="st0" d="M212.2,196.9l0.4,0.9l-5.7,1.6l-1.3,2l-2.4-1.6l1.2,3.9h-2.2l-3.9-2.8l-1.9,3.9l1,1.2v1.2
		l-2,2.6l0.2,4.3l-3.1,3.7l-2.2,8h0.3l0.8,3.1l3.7,0.8v2.3l4.7,1.4v3.7l-0.2,2.3h5.8l5.1-1.2L210,236l1.6-1l1.6,2.2l1.4,0.6l1.2,4.7
		l3.3,3.5l0.4,2.8l3,3l1.7-0.2l2.1-2l1.5-8l1-2.8l0.7-3.5l3.1-1.1l2.1,0.4l1.4,1.3l1.5-2.5l1.4-1.3v-1.5l1.8-0.1l0.4-1.8l-1.6-2.1
		l0.3-0.9l-1.1-0.9l-2.9-4.3h-3.8l-1.1-1.7v-7l-1.5-4.1l-0.3-5l-2-0.2l-2.3-1.7h-0.6l-2,1.4l-1.3-0.8l-0.3-1.9l1.4-0.7l0.1-0.7
		l-0.8-0.7L212.2,196.9z"/><title>Indre-et-Loire</title></a></g>
	<g><a href="https://cdn.rawgit.com/nicolasenault/routes_departements/de9f91762edf4f1141d2a38fa5c9e253dbfa0505/loiret.pdf" target="_blank"><path id="Loiret" class="st0" d="M273.7,160.5l-2.5,2.3l-5.7,0.5l-0.2,0.4l0.6,1.1l-1.8,1.5l0.4,3.7l-1.5,0.3l-1,3.6l-1.7,1.8h-2.4
		l-2.3,1.3l-1.3-1.4l-1.4-0.6l-1.5,1v1.5l-1.1,0.8l-1.8-1.1l-1.1,0.8l0.1,1.3l-0.5,1.2l0.4,0.1h1.7l-0.1,1.1l-1.1,1.9v1h1.1l1,1.1
		l0.3,1.1l-2.2,2.2l1.1,2.7v1.3l1.8,1.3l2.5,0.3l1.7,1.4l0.4,2.4l1.8,2.1l2-0.6l0.8-1.8l3.1,0.4l0.7,0.7h2l1-1.1l7.2,0.3l1.7,2.5
		l2,0.8l1.7,1.6l2.1-0.3l0.6-0.7h1.3l1.6,2l3.2,0.2l0.8,1.1l2.3,3.1l1,0.8l1.3-0.1l0.2-2.8l0.6-0.3l0.8,0.1l1.4,1.8l1,0.4l2-0.8
		l-0.3-0.3l-0.2-2l3.9-1.2l-0.6-2.2L302,199l-2.5-3.5l-0.6-2.2h3.9l2.8-2l0.4-2.9l-1.8-2l5.1-4.3v-3.5l-2.6-2.7l-1-3.1l-3.5-3.3
		l-4.9,2.8l-0.4-1.6l-2.2-0.2l-0.6,1.6l-1.9,0.4l-5.3-0.2l-2.2,1.4l-1.8-1.6l3.1-2.2l-0.2-3.3l-2.3-1.2l-2-2.9l-5.3-0.4L273.7,160.5
		z"/><title>Loiret</title></a></g>
	<g><a href="https://cdn.rawgit.com/nicolasenault/routes_departements/de9f91762edf4f1141d2a38fa5c9e253dbfa0505/indre.pdf" target="_blank"><path id="Indre" class="st0" d="M254.7,221.4l-1.3,0.4l-2.5-0.2l-2.9,1l-0.7,1.5l-0.3-0.6l-3.4,0.2l-1.7,1.4l-2,0.3l-0.3,1l1.6,2.1
		l-0.4,1.8l-1.8,0.1v1.5l-1.4,1.3l-1.5,2.5l-1.4-1.3l-2.1-0.4l-3.1,1.1l-0.7,3.5l-1,2.8l-1.5,8l-2.1,2l-1.7,0.2l0.5,0.5v3.7
		l-0.8,2.3l3.7,2.9l1.9,1.9l3.1,0.4l1.2,4.1l2.1,1.2l-0.4,2.9l-1.6,0.3l0.6,0.1l4.9,0.4l1.8-1.8l3.1,3.1l3.9-4.5l1.8,1.2l2.3-0.2
		l0.8,0.4l3.5,0.2l1.2-3.1l9.8,1.2l3.7,1l1.7-0.2l0.1-1.6l2-2l-0.4-1.7l-1.1-2.2l0.4-0.8l0.2-2.5l0.7-0.8l0.2-0.6l-1.7-1.5l-0.6-2
		l-2.7-1.4V251l1.9-1.1v-1.1l-1.8-1.5l-0.6-1l1.4-0.7l-0.1-1.3l2.2-1.8l-0.1-0.8h-1.8l-1.1-1.3v-0.7l1-1.7v-1.3l-2.3-3l0.4-2.7
		l-1.3-1l-2.7,0.1l-2.1,0.8l-2.8-0.4l-1.4-1.1l-0.3-0.8l2.3-1.8l0.2-2.2l-3-1.7L254.7,221.4z"/><title>Indre</title></a></g>
	<g><a href="https://cdn.rawgit.com/nicolasenault/routes_departements/de9f91762edf4f1141d2a38fa5c9e253dbfa0505/loiretcher.pdf" target="_blank"><path id="Loir-et-Cher" class="st0" d="M222.5,172.3l-1.3,1.7l-1.6,2.7l1.9,1.8l-0.2,4.1l-0.8,2.7h-2v3.7l-2.7,3.5l-2.9,1.2
		l-1.4,1.8l0.6,1.5l9.5,0.3l0.8,0.7l-0.1,0.7l-1.4,0.7l0.3,1.9l1.3,0.8l2-1.4h0.6l2.3,1.7l2,0.2l0.3,5l1.5,4.1v7l1.1,1.7h3.8
		l2.9,4.3l1.1,0.9v-0.1l2-0.3l1.7-1.4l3.4-0.2l0.3,0.6l0.7-1.5l2.9-1l2.5,0.2l1.3-0.4l1.7,1.6l3,1.7l2.5-0.2l-0.1-2.5l1.1-1.3
		l1.1-0.1l1,1.1l3.9-0.4l2.5-1.4l-0.3-1l-0.7-0.8l0.1-1.8l1.8-3.3l2.4-1V210l0.6-1.3l-1.5-0.6l-1-2.1l-2.5-0.7l-0.1-0.8l2.5-2.1
		l2.8-1.4l-1.6-2.4l-7.2-0.3l-1,1.1h-2l-0.7-0.7l-3.1-0.4l-0.8,1.8l-2,0.6l-1.8-2.1l-0.4-2.4l-1.7-1.4l-2.5-0.3l-1.8-1.3v-1.3
		l-1.1-2.7l2.2-2.2l-0.3-1.1l-1-1.1h-1.1v-1l1.1-1.9l0.1-1.1h-1.7l-2.5-0.7l-2.4,2.3l-2.7,0.3l-4.3-1.1l-1.3-2.8l-1.7-1l-1-2.3h-2.8
		l-1.1-0.8l1.7-1l0.1-0.8h-1.8l-3.1,0.6L222.5,172.3z"/><title>Loir-et-Cher</title></a></g>
	<g><a href="https://cdn.rawgit.com/nicolasenault/routes_departements/de9f91762edf4f1141d2a38fa5c9e253dbfa0505/cher.pdf" target="_blank"><path id="Cher" class="st0" d="M275.5,200.8l-2.8,1.4l-2.5,2.1l0.1,0.8l2.5,0.7l1,2.1l1.5,0.6l-0.6,1.3v2.1l-2.4,1l-1.8,3.3
		l-0.1,1.8l0.7,0.8l0.3,1l-2.5,1.4l-3.9,0.4l-1-1.1l-1.1,0.1l-1.1,1.3l0.1,2.5l-2.5,0.2l-0.2,2.2l-2.3,1.8l0.3,0.8l1.4,1.1l2.8,0.4
		l2.1-0.8l2.7-0.1l1.3,1l-0.4,2.7l2.3,3v1.3l-1,1.7v0.7l1.1,1.3h1.8l0.1,0.8l-2.2,1.8l0.1,1.3l-1.4,0.7l0.6,1l1.8,1.5v1.1l-1.9,1.1
		v1.7l2.7,1.4l0.6,2l1.7,1.5l-0.2,0.6l-0.7,0.8l-0.2,2.5l-0.4,0.8l1.1,2.2l0.4,1.7l-2,2l-0.1,1.6l4.6-0.6l0.9-2l2.5-2.9l4.9-1
		l2.6,0.8l2.7-2.1l-0.2-1.6l-1-0.8v-3.1l5.3-5.3l2,2.2l1.8-1.8l1.6-0.2l2.7-3.5l4.5,0.4l0.1,1.1l1.5-4.8l-1-1.8l0.2-2.5l0.6-5.1
		l-2.2-2.1l0.4-4.7l-2-4.1l-0.2-2.7l-3.5-2.8l-0.6-2.3l1.8-2.5v-3.7l-2-2.4l-2,0.8l-1-0.4l-1.4-1.8l-0.8-0.1l-0.6,0.3l-0.2,2.8
		l-1.3,0.1l-1-0.8l-2.3-3.1l-0.8-1.1l-3.2-0.2l-1.6-2h-1.3l-0.6,0.7l-2.1,0.3l-1.7-1.6l-2-0.8L275.5,200.8z"/><title></title></a></g>
	<g><a href="https://cdn.rawgit.com/nicolasenault/routes_departements/de9f91762edf4f1141d2a38fa5c9e253dbfa0505/cotedor.pdf" target="_blank"><path id="Côte-d_x27_Or" class="st0" d="M363.4,177.3l-0.4,2.5l-2.5,1.4l-6.4,0.2l0.3,1.4l0.2,1.4l-2,1.4v2.4l0.4,0.4h1.6l1,1.7
		l-0.6,2.8l-2.3,1.7v1.7l0.7,0.6l-0.2,0.4l-1.4,0.6l-0.4,2.1l-2.3,4.8l-1.5,2.3v2.3l0.6,1l-0.8,1.1l-2,1l0.1,2l1.8,1.1l0.7,1.5
		l-0.3,2.1l-0.4,1.5l1,1.7l2.8,0.6l1.3,2v0.8l-0.8,0.3v2l0.2,0.1l3.8,3.9l3.9-0.1l3.5,2.7l2.5,1.8l0.1,2.4l2.7,0.6l2.3,1.8l5.9-2.1
		l4.1-1.3l1.8-0.3l0.6-0.8l2,0.1l1.5,1l2.3-0.6l2.3-1.5l1.7,0.2v-0.2l1.3-0.8l-0.2-1l-0.4-1.2l1-1.6l3.3-1.6V228l1.2-1.6l1.2-1.6
		l-0.4-1.4l0.6-2.2l0.4-3.1h0.8l-0.2-1.2l-0.8-0.8l-0.2-3.9l-1.8-0.2l-0.4-3.1l-2.2-1l0.8-1l1.2-0.4l2.5-2.9l-0.2-1.6l-1.6-3.1
		l-2.3-0.4l-0.8,2l-4.3,1l-0.4-1l-3.1-3.9l-1.8,1l-2.3-0.2l-0.8-1.6l-3.1,0.2l-0.2-3.3l-1.8-1.2l2.5-2.7l-4.5-6.1l-3.5-3.7l-3.1-1.8
		h-5.8V177.3z"/><title>Côte d'Or</title></a></g>
	<g><a href="https://cdn.rawgit.com/nicolasenault/routes_departements/de9f91762edf4f1141d2a38fa5c9e253dbfa0505/nievre.pdf" target="_blank"><path id="Nièvre" class="st0" d="M306.8,203.8l-1,1.5H304l-2.5-0.6l-2.8,0.8l0.2,2l2.3,2.7v3.7l-1.8,2.5l0.6,2.3l3.5,2.8l0.2,2.7
		l2,4.1l-0.4,4.7l2.2,2.1l-0.6,5.1l-0.2,2.5l1,1.8l-1.5,4.8l0.1,1.5l3.3,1.6l2.3,2.6l2.1-1.2l2-1.2l0.4,1.8h2.9l0.8-1.6l1.8,0.8
		l0.6,2.5l1.6-0.4l3.7-5.1l1.9,1.4l0.3,0.6l3.1-1.9l1.3,0.2l1,2.4l1.8-0.3l1.4-1.4h1.8l1.4-1.8l1.4-0.3l0.3-1l3.1,0.2l0.2-0.7
		l-1.4-1.3v-1.3l2-1.1v-0.8l-1.8-1.1l-0.3-2.1l0.2-2l-1.3-0.8l1.1-1.5l1-0.6l0.7-1.7l-1-0.6l-1.1-1.7l1.4-2l2.4-1.4h2.9v-2.2
		l0.8-0.3v-0.8l-1.3-2l-2.8-0.6l-1-1.7l0.4-1.5l0.3-2.1l-0.5-1.1l-3.1,2.1l-1.3,0.6l-1.7-1.1l0.2-2.8h-1.8l-1.5,1l-0.4-1.3l0.8-1.4
		l-1-1.3l-1.1,1.7l0.2,1.3l-2.7-0.1l-4.2-3.9l-3.2-0.1v-2.1l-2.3-1.4l-0.4-1.8l-0.7-0.1v3.5l-1.3,0.3l-1.8-0.6l-1.9,1.3l-1.1,0.3
		l-1.1-1l-1.1,0.6l-2.5-1.7h-1.8l-1.3-0.8l0.3-1.6l-1.4-1.3h-1.5V203.8z"/><title>Nièvre</title></a></g>
	<g><a href="https://cdn.rawgit.com/nicolasenault/routes_departements/de9f91762edf4f1141d2a38fa5c9e253dbfa0505/saoneetloire.pdf" target="_blank"><path id="Saône-et-Loire" class="st0" d="M351.5,227.8v0.2h-2.9l-2.4,1.4l-1.4,2l1.1,1.7l1,0.6l-0.7,1.7l-1,0.6l-1.1,1.5l1.3,0.8
		l-0.2,2l0.3,2.1l1.8,1.1v0.8l-2,1.1v1.3l1.4,1.3l-0.2,0.7l-3.1-0.2l-0.3,1l-1.4,0.3l-1.4,1.8h-1.8l-1.4,1.4l-1.8,0.3l-1-2.4
		l-1.3-0.2l-3.1,1.9l3.6,6.8v2.9l1,1.2h3.3l1.2,1.6h3.1l1.4,1.9l-0.2,7.6l-4.1,3.1l-0.1,0.2h0.3l0.6,0.2l0.2,3.1l2.9,0.6l0.4,1.4
		h1.6l2.3-1.4l6.3,1l1.2,1.2l1.6-1.6h2.2l1.2-6.3l0.8-0.6h1.9l2.4,1.6l1.8-1.6l1.2,1.6l1.8-1.8l2.1-0.2l1,3.1l0.8,3.9l1.4,0.2
		l1.2-2.8l3.7-14.4l1.4-2.5l2.2-0.2l2.2,1.8l1.6-0.4l1.9-1.4l2,0.4l1.2,2.5l1.1,0.4l5.1-0.6l2-1.6l-0.8-1.2l-2.3-0.8l-0.2-2.7l2-1.4
		l0.8-3.3l-1.8-3.1l-1.2-1.6l0.6-0.6v-1.9l-1.6-1l-0.4-1.6l4.5-0.6l0.4-1.6h-1.4l-1.2-1.4h-2.2l-1.8-2.9l-1.6-0.2l0.2-2.3l-1.7-0.2
		l-2.3,1.5l-2.3,0.6l-1.5-1l-2-0.1l-0.6,0.8l-1.8,0.3l-4.1,1.3l-5.9,2.1l-2.3-1.8l-2.7-0.6l-0.1-2.4l-2.5-1.8l-3.5-2.7l-3.9,0.1
		l-3.8-3.9L351.5,227.8z"/><title>Saône-et-Loire</title></a></g>
	<g><a href="https://cdn.rawgit.com/nicolasenault/routes_departements/de9f91762edf4f1141d2a38fa5c9e253dbfa0505/jura.pdf" target="_blank"><path id="Jura" class="st0" d="M401.2,217.5l0.1,0.5h-0.8l-0.4,3.1l-0.6,2.2l0.4,1.4l-1.2,1.6l-1.2,1.6v1.6l-3.3,1.6l-1,1.6
		l0.4,1.2l0.2,1l-1.3,0.8l-0.2,2.5l1.6,0.2l1.8,2.9h2.2l1.2,1.4h1.4l-0.4,1.6l-4.5,0.6l0.4,1.6l1.6,1v1.9L397,250l1.2,1.6l1.8,3.1
		l-0.8,3.3l-2,1.4l0.2,2.7l2.3,0.8l0.8,1.2l-2,1.6l-5.1,0.6l2.4,0.9l3.9,5.5l2.5,1.2v2.8l2.9-0.4l3.7-4.1l3.1,1.6v2.3h5.7l8.1-8.9
		l-0.3-0.2l0.4-4.1l2.9-3.5l-2-0.8l0.2-1.2l-2.4-0.2l-0.2-1.4l1.5-1.5l-0.4-1.5l-0.8-2l3.5-1.1l1.3-1.8l0.3-2.3l-2.8-2.7l-2-0.5
		l-4.3-1.4v-3.9l-0.3-2.9l-3.5,0.3l-5.5-1.8l0.8-1.9l1.3-3l0.4-1.9l-1.4-1.8l-2.5-1.7l-0.3-2.1v-1.2l-1.7-0.1l-1,1h-2.5l-1.7-1.4
		L401.2,217.5z"/><title>Jura</title></a></g>
	<g><a href="https://cdn.rawgit.com/nicolasenault/routes_departements/de9f91762edf4f1141d2a38fa5c9e253dbfa0505/marne.pdf" target="_blank"><path id="Marne" class="st0" d="M337.4,99.3l-2.3,1l0.4,1.9h-4.1l-3.7,2.8v5.3l2.7,1.8l0.8,1.8l-4.5,0.4l-0.6,1.8l1.8,1.2l-0.8,1.2
		l-1.8,0.8l0.4,1.3h2.5l1,1.4l-1.8,1.2l-1.6,4.1l-2.9,1.4l-1,2.1l-1,1.2l0.2,1.2l-1.6,1l-0.4,2.7l1.6,1l0.8,2.9l-1,1.8l0.6,1.4
		l2.9-0.2v1l0.8-0.2l3.4,3.6l4.8-0.8l5.6-3.8h3.3l3.4-2.4l4-2.2l3,0.2l0.4,4l3.6,5.3h4l5.6-1.2l4,1.4l4.2-3l0.6-4.9l4.6-0.8
		l-0.1-3.1l-3.7-2.9l-0.4-1.6l1.4-2.3l-1.2-1l1.2-2.9l2.2-1l1.6-4.9l-3.1,0.2l1.8-1.9l-1.4-4.3l-1.3-2.9l1.8-1.6l-1-0.2l-0.3-1.3
		h-0.3l-1.8-1.6l-2,2h-0.6l-0.8-1l-4.8-0.2l-0.8,1.2H364l-1.2-2.6h-2.6l-0.6,0.6l-2.6-0.2l-3.2-2.4l-2.2-0.6l-0.8-1.2l-4.2-2.6
		l-4.8-0.1l0.1,1.8l-1.4,0.4L337.4,99.3z"/><title>Marne</title></a></g>
	<g><a href="https://cdn.rawgit.com/nicolasenault/routes_departements/de9f91762edf4f1141d2a38fa5c9e253dbfa0505/oise.pdf" target="_blank"><path id="Oise" class="st0" d="M257.2,80.2l-1.3,1.5l-0.8,1.9h1.6l-0.8,2l-0.8,3.9l1.2,1.9v3.3h2l-0.8,1.3l-1.4,2.6l-0.6,1.8
		l1.8,1.6l0.6,4.5l1,1.6l-1.4,0.4l-1.8-1l-0.3,2.3l0.1-0.2l0.8,1.8l1.2,1.9l5.3,0.4l3.7-0.4l2.5-1.9l3.1,1.9l1.6,1.2l2.3-0.6l2.1-1
		l4.1,2.2l4.3,2.5l1.4,1.4l2.3-1.6l1.9,1.2l1.2,1l1.8-0.2l1.2-1.6l2.7,1.6l3.3-1.4l1.9,0.6l1.9-1.6l1.2-0.6l0.4,0.3l0.4-2.7
		l-1.4-1.6l-2.4-1.6l-1,1.6l-0.6,0.2l-0.2-3l1.8-0.4l-0.4-2.8l-2.4-0.4l1.2-2l3.4-0.8l1.2-4.8l1.8-0.8l-2.4-1.8l0.8-1.8l0.4-5.9
		l-0.8-4.6l-4.1,0.4l-2.8-0.4l-5.2,1.4l-4.4,4.2l-3.6-1.2l-3.6-0.4l-2.8-2.8l-5-1.4l-6.7,0.6l-1.8-1.4h-3.6l-2.6,1l-1.2-0.8v-2.2
		l-0.4-0.6h-2.1V80.2z"/><title>Oise</title></a></g>
	<g><a href="https://cdn.rawgit.com/nicolasenault/routes_departements/de9f91762edf4f1141d2a38fa5c9e253dbfa0505/pasdecalais.pdf" target="_blank"><path id="Pas-de-Calais" class="st0" d="M269.3,8.7l-10.8,2.1l-8.6,6.6v26.4l-0.1,0.8l3,0.7l1,2.2l2.3-0.6l1.4-1.8l1.8,0.6l3.7,2.9
		l1.4-0.6l1,2.3l3.5,1.6v1.9l2.6,1l2.5-1l4.9-0.6l1.2,1l2.3-1l1.2,2l-2.9,1.9v2.8l1,1l0.8-0.2l0.6-1.6l1.8-1.2l1.8,1.4l4.1,1.4h1.8
		v-2l2.6,1.8L295,62l-1.2,1.8l2.2-1.2l1.8-0.8l0.8,1.4v1.4l2.9-1.6h4.7l0.2,0.2l1.2-2.2l-0.6-1l-1.8-0.4h-2l-1.2-0.4l2-1.2l1.8,0.2
		l1.8-0.2l0.2-3.2L309,54l0.2-1.8l-2.2-1.4l-2.6-0.2l-0.6-0.4l1.6-1.2l0.4-1.2l-1.4-1l-2-2.4l0.2-1.2l2.6-1.2l0.4-1.4l-1.8-0.8
		l-1-2.6l-3.6-0.4l-3.6-1l-0.4-4l2.6-1.6l-1-2h-2l-1.4,2.2l-6.2-0.4l-5-1.2l-2.8-3v-2.4l2.2-1l-1.8-1.4l-4.3-0.2l-2.6-6.6L269.3,8.7
		z"/><title></title></a></g>
	<g><a href="https://cdn.rawgit.com/nicolasenault/routes_departements/de9f91762edf4f1141d2a38fa5c9e253dbfa0505/nord.pdf" target="_blank"><path id="Nord" class="st0" d="M285.8,4.1L279.5,7l-9.8,1.6l-0.5,0.1l3.7,5.9l2.6,6.6l4.3,0.2l1.8,1.4l-2.2,1v2.4l2.8,3l5,1.2
		l6.2,0.4l1.4-2.2h2l1,2l-2.6,1.6l0.4,4l3.6,1l3.6,0.4l1,2.6l1.8,0.8l-0.4,1.4l-2.6,1.2l-0.2,1.2l2,2.4l1.4,1l-0.4,1.2l-1.6,1.2
		l0.6,0.4l2.6,0.2l2.2,1.4l-0.2,1.8l-1.2,0.8l-0.2,3.2l-1.8,0.2l-1.8-0.2l-2,1.2l1.2,0.4h2l1.8,0.4l0.6,1l-1.2,2.2l1.6,1.6l1.6,0.4
		l1.6-1h2.2l0.6,1.2l0.8-0.2l2.3-1.4l2.3,1.4l3.1-2.2h1.4l1.6,1.4l3.1-2.2l1.3,0.2l1.2,1l4.3,0.4l0.4,1.8l2.2-1.9h1.2l0.8,2.5l3.7,1
		l1.1-0.7h-0.3l-0.2-1.9l3.9-2.3l-0.6-3.7l-3.7-1l1-1v-2.7l2.9-2.2l-0.8-1.6l-6.3-4.9l-10.9,0.6l-1.2,1.9H327l0.2-6.8l-3.1-3.7
		l-2.3,0.4l-1.4-1.6l-3.9,1.8l-1.3-1.3l-2.8-0.4l-0.8-2.5l-0.2-7.8l-1.8-0.8l-0.2-1.2h-1.2l-0.4-2.3l-2.5,0.2l-4.9,1.6l-2.3,2.9
		h-2.3l-1.6-1.9l-0.6-2.2l-1.9-2.2h-2.8l-1.2-2.1v-3.3l1.3-2.1l-0.8-2.9L285.8,4.1z"/><title>Nord</title></a></g>
	<g><a href="https://cdn.rawgit.com/nicolasenault/routes_departements/de9f91762edf4f1141d2a38fa5c9e253dbfa0505/aisne.pdf" target="_blank"><path id="Aisne" class="st0" d="M328.4,62.2l-3.1,2.2l-1.6-1.4h-1.4l-3.1,2.2l-2.3-1.4l-2.3,1.4l-0.8,0.2l-0.6-1.2H311l-1.6,1h-0.1
		l0.5,2.8l-2.6,2.8v2.6l-1.8,2l0.4,2.4l1,4l1.2,6.8l-0.4,5.9l-0.8,1.8l2.4,1.8l-1.8,0.8l-1.2,4.8l-3.4,0.8l-1.2,2l2.4,0.4l0.4,2.8
		l-1.8,0.4l0.2,3l0.6-0.2l1-1.6l2.4,1.6l1.4,1.6l-0.4,2.7l1.8,1.3l0.6,4.3l5.3,5.1l1.8,0.6l1,2.3l3.3,0.7l0.4-0.5l1-2.1l2.9-1.4
		l1.6-4.1l1.8-1.2l-1-1.4h-2.5l-0.4-1.3l1.8-0.8l0.8-1.2l-1.8-1.2l0.6-1.8l4.5-0.4l-0.8-1.8l-2.7-1.8V105l3.7-2.8h4.1l-0.4-1.9
		l2.3-1l3.3,2.2l1.4-0.4l-0.2-6.7l0.6-2.3l0.8-2.7l-2.6-1.4l0.6-1.6l3.7-0.8v-2.5l2.9-1.6l0.8-2.3l-1-1.6l0.2-2.9l1.8-1.6l-1.8-3.3
		l0.5-3.5h-4l-1.1,0.7l-3.7-1l-0.8-2.5h-1.2l-2.2,1.9l-0.4-1.8l-4.3-0.4l-1.2-1L328.4,62.2z"/><title>Aisne</title></a></g>
	<g><a href="https://cdn.rawgit.com/nicolasenault/routes_departements/de9f91762edf4f1141d2a38fa5c9e253dbfa0505/somme.pdf" target="_blank"><path id="Somme" class="st0" d="M249.8,44.5l-0.5,6.4l4.3,3.9v2l-5.3-3.1l-6.3,7.8l1.7,0.7l2.2-0.2l1,1.9l8.6,8.4l0.6,3.5l1.9,3.5
		l-0.7,0.8h2.5l0.4,0.6V83l1.2,0.8l2.6-1h3.6l1.8,1.4l6.7-0.6l5,1.4l2.8,2.8l3.6,0.4l3.6,1.2l4.4-4.2l5.2-1.4l2.8,0.4l4.1-0.4
		l-0.4-2.2l-1-4l-0.4-2.4l1.8-2v-2.6l2.6-2.8l-0.5-2.8l-1.5-0.4l-1.8-1.8h-4.7l-2.9,1.6V63l-0.8-1.4l-1.8,0.8l-2.2,1.2l1-1.6
		l-0.2-1.6l-2.6-1.8v2h-1.8l-4.1-1.4l-1.8-1.4l-1.8,1.2l-0.6,1.6l-0.8,0.2l-1-1V57l2.9-1.9l-1.2-2l-2.3,1l-1.2-1l-4.9,0.6l-2.5,1
		l-2.6-1v-1.9l-3.5-1.6l-1-2.3l-1.4,0.6l-3.7-2.9l-1.8-0.6l-1.4,1.8l-2.3,0.6l-1-2.2L249.8,44.5z"/><title>Somme</title></a></g>
	<g><a href="https://cdn.rawgit.com/nicolasenault/routes_departements/de9f91762edf4f1141d2a38fa5c9e253dbfa0505/ardennes.pdf" target="_blank"><path id="Ardennes" class="st0" d="M367.6,55.8l-2,2.9l-1.8,1.8v1.8v2.3l-2.3,1.6l-4.3,1.4l-2.3,1l-2.8-2.2h-3.7l-0.5,3.5l1.8,3.3
		l-1.8,1.6l-0.2,2.9l1,1.6l-0.8,2.3l-2.9,1.6v2.5l-3.7,0.8l-0.6,1.6l2.6,1.4l-0.8,2.7l-0.6,2.3l0.1,4.9l4.8,0.1l4.2,2.6l0.8,1.2
		l2.2,0.6l3.2,2.4l2.6,0.2l0.6-0.6h2.6l1.2,2.6h1.4l0.8-1.2l4.8,0.2l0.8,1h0.6l2-2l1.8,1.6c0,0,0.2,0,0.3,0l-0.1-0.8l2.3-1.2
		l1.2-1.2l-0.8-1.9l-0.2-1.4l2.2-1.8l0.8-3.9l-2.3-2.9l0.8-1.4l2-3.7l0.6,0.8h2.9l1.4,1.3l1.8-1.2l1.4-2.3l-1.4-0.2l-0.8-3.9
		l-1.6-1.2l-5.5-0.6l-1-2.5l-1.8-1.2l-6.3-0.8l-0.4-4.5l0.8-0.8V69l-3.1-2l0.6-2.2l0.8-1.9l-1.4-1.2l2.2-1.9v-3.5l-0.8-0.6
		L367.6,55.8L367.6,55.8z"/><title>Ardennes</title></a></g>
	<g><a href="https://cdn.rawgit.com/nicolasenault/routes_departements/de9f91762edf4f1141d2a38fa5c9e253dbfa0505/aube.pdf" target="_blank"><path id="Aube" class="st0" d="M349.3,138.7l-4,2.2l-3.4,2.4h-3.3l-5.6,3.8l-4.8,0.8l-3.4-3.6l-0.8,0.2v0.6l-2.7,1.2l-0.2,2.3
		l-1.4,1.8l-0.8,3.9l-0.4,3.3l1.2,1h2.3l5.1,5.3l-0.6,5.3l3.5,2.7l2-1.4l3.1,3.7l0.4,3.5l2.2,2.9l1,2.2l7.8,0.4l3.9-2l1.2,2.2
		l1.4,0.2l1-2.2l6.4-0.2l2.5-1.4l0.4-2.5h5.7l0.8,0.4l-0.7-2.5l-1.6-1l2.2-2l3.4-0.2l1.2-1.8l-0.2-7.1l-0.8-4.2l-3.4-1.2l-3.6-5
		l0.2-3l1-2.2l-1.8-0.6l-5.6,1.2h-4l-3.6-5.3l-0.4-4L349.3,138.7z"/><title>Aube</title></a></g>
	<g><a href="https://cdn.rawgit.com/nicolasenault/routes_departements/de9f91762edf4f1141d2a38fa5c9e253dbfa0505/hautemarne.pdf" target="_blank"><path id="Haute_Marne" class="st0" d="M379.1,139.7l-4.6,0.8l-0.6,4.9l-4.2,3l-2.2-0.8l-1,2.2l-0.2,3l3.6,5l3.4,1.2l0.8,4.2
		l0.2,7.1l-1.2,1.8l-3.4,0.2l-2.2,2l1.6,1l0.7,2.5l2.3,1.3l3.5,3.7l4.5,6.1l-2.5,2.7l1.8,1.2l0.2,3.3l3.1-0.2l0.8,1.6l2.3,0.2l1.8-1
		l3.1,3.9l0.4,1l4.3-1l0.8-2h0.2v-2l2.7-1.2l3.1,1.2l2.9-1.2h1.8l0.6-3.9l1-1.2l-1.8-0.2l-0.2-2.3l2.7-0.6l0.2-1.6h2.8v-2.5l2.2-0.8
		l-0.6-1.6l0.6-0.4l-1.8-1.4l-2.1,0.8v-4.1L405,173l1.2-5.3l1.8-1.2l-0.6-1.8l-2.6-0.4l-0.6-2.6h-2.3l-2.8-3.7l-3.1-0.2l-1.3-1.9
		l1.8-1.8l-4.1-4.5l-1.8-0.6l-4.7-2.3l-2.5-2.7l-4.1-0.6L379.1,139.7z"/><title>Haute Marne</title></a></g>
	<g><a href="https://cdn.rawgit.com/nicolasenault/routes_departements/de9f91762edf4f1141d2a38fa5c9e253dbfa0505/basrhin.pdf" target="_blank"><path id="Bas-Rhin" class="st0" d="M480.7,112.3l-3.7,1l-1.7,3v2.9l-1.6,1.4h-1.4l-2.5-1.8l-2,1.4h-2.3l-1.9-1.9l-3.7-0.6l-2.2-1
		l-0.8-2.9l-1.8,1.9l-1,4.5l-2.6,0.8v2.5l2.6,1.2l1.9,1.4l-0.8,1.8l1.8,1.2l3.1-2.3l5.4,3.1l-2.3,4.3l0.2,1.4l1.6,1.6l-1.2,4.1
		L460,145l-2.2-0.2l1.4,1.3l-0.8,3.5l0.8,5.3l3.7,1l-0.3,0.7l2.9-0.2l1.7,2.1l1.5,1.9l3.8-0.2l1.7,5l3,1.3v-0.6l5.1-10l-0.6-5.7
		l2.3-7.6l0.6-6.7l5.1-3.7v-2.3l2-2.6h1.6l1.8-1.8l-0.4-3.3l1.8-4.7l2.7-0.6l-2.7-2.2l-4.9-0.6l-4.3-2.2l-2.9,1.8l-1.6-1.8h-2.1
		V112.3z"/><title>Bas-Rhin</title></a></g>
	<g><a href="https://cdn.rawgit.com/nicolasenault/routes_departements/de9f91762edf4f1141d2a38fa5c9e253dbfa0505/meurtheetmoselle.pdf" target="_blank"><path id="Meurthe-et-Moselle" class="st0" d="M401.6,88.4l-2.3,2.2l-3.3,0.2l-1.2,1.2h-0.3l-0.1,2.3l1.2,1.9l-0.4,1.2l-0.4,1.3
		l0.2,0.8l1-0.8l0.9-1.7l1.9-0.2l3.3-1l1.7,1.3l0.8,1.5l0.6,1.7v1.7l0.9,0.8v1.3l-0.9,1.2l-0.2,2.5l0.8,1.2l0.2,1.5l0.2,2.5l1.2,1
		l1.7,0.8l-0.8,1.5l2.1,1.9l-1.9,2.1l0.4,1.3l1.9,0.9v1h-2.3l-1,1.3l0.2,1l1.5,1.5l-1.3,3.6l-1.5,3.4l0.8,2.1v3.4l0.8,1.7h1.1l0.6,1
		H408l-1.5,0.8v1.2l1.9,1.7v2.7l1.9-0.6l2.9,0.2l0.2,3.1l1.2,0.4l-1.3,0.9l-0.2,1l2.1,0.4l1.3,1.7l6.3-0.4l1.3-2.5h2.9l1.2-0.9
		l1.9,1.2l1.7-0.6l2.5,0.2l2.1-0.8l2.1-1.5l1.2,1.2l0.2-2.7l1.5-0.6l0.8,2.5l2.3,0.2l2.3,0.6l0.9,0.2l3.3-1.5l1.7-1.2l1.5-1.9
		l3.1-1.2l2-0.4l-1.1-1.1l2.2,0.2l0.4-0.4l-2.3-0.8l-3.3-2.3l-2.9-2.1h-3.4l-3.6-2.1l-2.9-0.2v-0.8l-4.4-2.7l-5-2.1h-2.5l-0.9-2.7
		l-3.8-4.8H422l-1.5-2.1H417l0.2-3.1l-4-2.5l0.2-2.5h2.1v-2.1l0.8-1.5l-1.7-1.7l1.5-2.7l-1.2-3.1l-0.9-0.8l-2.5-5.3l1-1.5
		c0,0-0.1-1.3-0.2-2.9h-2.6l-3.5-3.9h-4.6V88.4z"/><title>Meurthe-et-Moselle</title></a></g>
	<g><a href="https://cdn.rawgit.com/nicolasenault/routes_departements/de9f91762edf4f1141d2a38fa5c9e253dbfa0505/seineetmarne.pdf" target="_blank"><path id="Seine-et-Marne" class="st0" d="M307.5,116.5l-1.2,0.6l-1.9,1.6l-1.9-0.6l-3.3,1.4l-2.7-1.6l-1.2,1.6l-1.8,0.2l-1.2-1
		l-1.9-1.2l-2.3,1.6L288,119l-0.8,5.4l1.2,6.9v4.6l-1.5,3.8l0.4,2.7l-1.7,1.3l0.9,5.2l-0.8,1.1l-0.6,5.2l1.3,1.7l-4.4,2.9v3.9
		l1.2,1.8l2.3,1.2l0.2,3.3l-3.1,2.2l1.8,1.6l2.2-1.4l5.3,0.2l1.9-0.4l0.6-1.6l2.2,0.2l0.4,1.6l4.9-2.8l1.8-2.1l2.3-2.8l-1.6-1.8
		l1.4-2.9l3.5-1.8l7.6,0.4l1.8-1.3l0.2,0.2l0.4-3.3l0.8-3.9l1.4-1.8l0.2-2.3l2.7-1.2v-1.6l-2.9,0.2l-0.6-1.4l1-1.8l-0.8-2.9l-1.6-1
		l0.4-2.7l1.6-1l-0.2-1.2l0.6-0.7l-3.3-0.7l-1-2.3l-1.8-0.6l-5.3-5.1l-0.6-4.3L307.5,116.5z"/><title>Seine-et-Marne</title></a></g>
	<g><a href="https://cdn.rawgit.com/nicolasenault/routes_departements/de9f91762edf4f1141d2a38fa5c9e253dbfa0505/hautrhin.pdf" target="_blank"><path id="Haut-Rhin" class="st0" d="M465.6,156.5l-2.9,0.2l-1.8,4.2l-2.3,4.7l0.6,2.9l-1.9,4.5l-3.3,2.9l-0.2,7.6l-2.4,2.1l0.1,0.1
		l0.8,1.6l3.1,0.2l3.5,2.8l0.6,1.3l-0.2,2.3l-1,1.8l0.4,2.3l2.8-0.4l0.6,2.2l1,4.2l2.3-0.4l-0.4,2.1l1.4,1.2l7.2-0.2l3.7-2.9
		l0.2-4.3l2-2.5l-2.6-2.9l-1.3-3.1l1.6-2.1V184l1-2.3v-3.9l1.8-2.5l-1.9-2.7l-0.2-5.6l-3-1.3l-1.7-5l-3.8,0.2l-1.5-1.9L465.6,156.5z
		"/><title>Haut-Rhin</title></a></g>
	<g><a href="https://cdn.rawgit.com/nicolasenault/routes_departements/de9f91762edf4f1141d2a38fa5c9e253dbfa0505/meuse.pdf" target="_blank"><path id="Meuse" class="st0" d="M390.1,86.5l-1.4,2.3l-1.8,1.2l-1.4-1.3h-2.9l-0.6-0.8l-2,3.7l-0.8,1.4l2.3,2.9l-0.8,3.9l-2.2,1.8
		l0.2,1.4l0.8,1.9l-1.2,1.2l-2.3,1.2l0.4,2.2l1,0.2l-1.8,1.6l1.3,2.9l1.4,4.3l-1.8,1.9l3.1-0.2l-1.6,4.9l-2.2,1l-1.2,2.9l1.2,1
		l-1.4,2.3l0.4,1.6l3.7,2.9l0.2,6.8l4.1,0.6l2.5,2.7l4.7,2.3l1.8,0.6l4.1,4.5l-0.4,0.4l3.4-0.4v-1.7l3.8-0.8v-1.3h0.9v1.1l3.1-0.9
		l1.2-1.6l-0.2,0.1v-2.7l-1.9-1.7v-1.2l1.5-0.8h1.7l-0.6-1h-1.1l-0.8-1.7v-3.4l-0.8-2.1l1.5-3.4l1.3-3.6l-1.5-1.5l-0.2-1l1-1.3h2.3
		v-1l-1.9-0.9l-0.4-1.3l1.9-2.1l-2.1-1.9l0.8-1.5l-1.7-0.8l-1.2-1l-0.2-2.5l-0.2-1.5l-0.8-1.2l0.2-2.5l0.9-1.2v-1.3l-0.9-0.8v-1.7
		l-0.6-1.7l-0.8-1.5l-1.7-1.3l-3.3,1l-1.9,0.2l-0.9,1.7l-1,0.8l-0.2-0.8l0.4-1.3l0.4-1.2l-1.2-1.9l0.1-2.3h-0.9l-0.8-3.7l-1.6-1.6
		L390.1,86.5z"/><title>Meuse</title></a></g>
	<g><a href="https://cdn.rawgit.com/nicolasenault/routes_departements/de9f91762edf4f1141d2a38fa5c9e253dbfa0505/moselle.pdf" target="_blank"><path id="Moselle" class="st0" d="M423.1,90.4l-2.9,0.2l-2.3,2l-0.6,1H414l-1.2-1.2h-0.5c0.1,1.7,0.2,2.9,0.2,2.9l-1,1.5l2.5,5.3
		l0.9,0.8l1.2,3.1l-1.5,2.7l1.7,1.7l-0.8,1.5v2.1h-2.1l-0.2,2.5l4,2.5l-0.2,3.1h3.1l1.5,2.1h3.8l3.8,4.8l0.9,2.7h2.5l5,2.1l4.4,2.7
		v0.8l2.9,0.2l3.6,2.1h3.4l2.9,2.1l3.3,2.3l2.3,0.8l3.5-3.5l1.2-4.1l-1.6-1.6l-0.2-1.4l2.3-4.3l-5.4-3.1l-3.1,2.3l-1.8-1.2l0.8-1.8
		l-1.9-1.4l-2.6-1.2V121l2.6-0.8l1-4.5l1.8-1.9l0.8,2.9l2.2,1l3.7,0.6l1.9,1.9h2.3l2-1.4l2.5,1.8h1.4l1.6-1.4v-2.9l1.7-3l-0.4,0.1
		l-1.3-1.9l-3.9-2.3L470,107l-4.7,0.4l-2.8,2.5l-6.6,0.2l-2-1.4c-0.1-0.2-1.1-1.9-1.9-2.4c0,0-0.1,0-0.1-0.1h-0.1h-0.1l0,0h-0.1
		c-0.9,0-2.7-1-2.9-1.2l-2.8,1.2l-0.2,2.3l-3.3,0.4l-2-3.7l-1.2-0.4v-2.7l-2.8-1.2l-0.2-4.7l-2-1.9l-4.1-2h-1.9l-0.6,0.4h-2
		L423.1,90.4z"/><title>Moselle</title></a></g>
	<g><a href="https://cdn.rawgit.com/nicolasenault/routes_departements/de9f91762edf4f1141d2a38fa5c9e253dbfa0505/vosges.pdf" target="_blank"><path id="Vosges" class="st0" d="M459,145.9l-2,0.4l-3.1,1.2l-1.5,1.9l-1.7,1.2l-3.3,1.5l-0.9-0.2l-2.3-0.6l-2.3-0.2l-0.8-2.5
		l-1.5,0.6l-0.2,2.7l-1.2-1.2l-2.1,1.5L434,153l-2.5-0.2l-1.7,0.6l-1.9-1.2l-1.2,0.9h-2.9l-1.3,2.5l-6.3,0.4l-1.3-1.7l-2.1-0.4
		l0.2-1l1.3-0.9l-1.2-0.4l-0.2-3.1l-2.9-0.2l-1.7,0.5l-1.2,1.6l-3.1,0.9v-1.1h-0.9v1.3l-3.8,0.8v1.7l-3.4,0.4l-1.3,1.3l1.3,1.9
		l3.1,0.2l2.8,3.7h2.3l0.6,2.6l2.6,0.4l0.6,1.8l-1.8,1.2L405,173l5.5,2.7v4.1l2.1-0.8l1.8,1.4l1.3-0.8l-0.8-1.2l1-0.6l1.3,1.6l2-1.4
		l0.6-1.9l3.7-0.6l1,0.8l-0.2,2.2l2.5,1.9l1.6-0.2l1.8-1.4h4.1l2.9,3.3h1l1.6-1l0.2-1.2l1.6-0.8l1.8,1.2l1.8,2l6.2,3.3l2.4-2.1
		l0.2-7.6l3.3-2.9l1.9-4.5l-0.6-2.9l2.3-4.7l2.2-4.9l-3.7-1l-0.8-5.3l0.8-3.5L459,145.9z"/><title>Vosges</title></a></g>
	<g><a href="https://cdn.rawgit.com/nicolasenault/routes_departements/de9f91762edf4f1141d2a38fa5c9e253dbfa0505/essonne.pdf" target="_blank"><path id="Essonne" class="st0" d="M274.2,136.4l-1.8,0.8l-1.9,0.8l-0.4,2.1l-2.9,1.3l-0.4,2.1l1.3,2.3l-1.9,2.7h-2.8l1.1,1.7
		l-1.3,1.5l-0.5,3.1l0.9,0.2l0.4,2.5l0.4,0.6l0.4,5.3l6.3-0.6l2.5-2.3l2.2,1.8l5.3,0.4l0.8,1.1v-3.9l4.4-2.9l-1.3-1.7l0.6-5.2
		l0.8-1.1l-0.9-5.2l1.7-1.3l-0.3-2.4l-2.2-1h-3.6l-2.1-1.2l-1.5,0.8L274.2,136.4z"/><title>Essonne</title></a></g>
	<g><a href="https://cdn.rawgit.com/nicolasenault/routes_departements/de9f91762edf4f1141d2a38fa5c9e253dbfa0505/yvelines.pdf" target="_blank"><path id="Yvelines" class="st0" d="M251.5,118.2l-0.1,0.1l-5.5,1.6l-0.8,1l1,1.6v1.6l1.8,0.4l-1,1l0.1,0.9l0.1-0.1l1.9,1.9l0.6,2.3
		l1.6,1.6l-0.8,2.2v1.9l1.4,1.6l-1.4,2.3l1.4,3.3l2.7,1.9l0.4,2.2l2.3,0.4l0.6,4.3l1.8,2.2l3.2,0.6l0.5-3.1l1.3-1.5l-1.1-1.7h2.8
		l1.9-2.7l-1.3-2.3l0.4-2.1l2.9-1.3l0.4-2.1l1.9-0.8l1.8-0.8l0.3,0.2v-0.2l-1.8-2l-1.1-3l1.8-3.8l-0.9-2.9l-3.4-2.1l-4.8-0.2
		l-4.5-2.9l-3.6,0.7L251.5,118.2z"/><title>Yvelines</title></a></g>
	<g><a href="https://cdn.rawgit.com/nicolasenault/routes_departements/de9f91762edf4f1141d2a38fa5c9e253dbfa0505/valdoise.pdf" target="_blank"><path id="Val-d_x27_Oise" class="st0" d="M255.6,109.7l-1.6,1.9l-1.2,4.3l-1.3,2.2l4.8,2.1l3.6-0.7l4.5,2.9l4.8,0.2l3.4,2.1
		l0.9,2.9v0.1l0.4-0.1l3.5-1.9l5.3-0.3l2.9-1.3l1.8-1.3l0.6-3.8l-1.3-1.3l-4.3-2.5l-4.1-2.2l-2.1,1l-2.3,0.6l-1.6-1.2l-3.1-1.9
		l-2.5,1.9l-3.7,0.4l-5.3-0.4l-1.2-1.9L255.6,109.7z"/><title>Val-d'Oise</title></a></g>
	<path class="st1" d="M287.3,122.8l-1.8,1.3l-2.9,1.3l-5.3,0.3l0.2,0.7l0.4,0.1l0.4,0.6l-0.4,0.9l-0.5,0.1l0.4,0.9h2.5l0.8,1.3
		l0.2,1.8l0.9-0.1l0.8-0.7l1.2,0.1l1.5,0.9l0.9,1l0.4,0.2l0.3,0.5l1,0.3v-2.8l-1.2-6.9L287.3,122.8z"/>
	<path class="st1" d="M280.3,129.1h-2.5l-1.1,0.5l-0.5,0.6l-1,0.1l-0.9,1.1v0.6l0.2,0.7l1.6,0.4l1.9,1l1.2,0.1l0.8-0.2l0.8-0.6
		l0.3,0.3l1.8,0.3l0.3-0.7v-0.7l-0.3-0.1l-1.3,0.1l0.1,0.3l-0.2,0.2h-0.4l0.2-0.4l0.1-0.4h-0.1l-0.2-1.8L280.3,129.1z"/>
	<path class="st1" d="M277.3,125.8l-3.5,1.9l-0.4,0.1l-1.7,3.8l1.1,3l1.8,2v0.2l2.7,1.9l0.7-0.3l-0.5-0.9l0.5-1.5l-0.3-0.5l0.3-1.2
		h-0.1l-1.9-1l-1.6-0.4l-0.2-0.7v-0.6l0.9-1.1l1-0.1l0.5-0.6l1.1-0.5l-0.4-0.9l0.5-0.1l0.4-0.9l-0.4-0.6l-0.4-0.1L277.3,125.8z"/>
	<path class="st1" d="M282.9,131.3l-0.8,0.7l-0.8,0.1l-0.1,0.4l-0.2,0.4h0.4l0.2-0.2l-0.1-0.3l1.3-0.1l0.3,0.1v0.7l-0.3,0.7
		l-1.8-0.3l-0.3-0.3l-0.8,0.6l-0.8,0.2l-1.1,0l-0.3,1.2l0.3,0.5l-0.5,1.5l0.5,0.9l0.9-0.4l2.1,1.2h3.6l2.2,1v-0.2l1.5-3.8v-1.8
		l-1-0.3l-0.3-0.5l-0.4-0.2l-0.9-1l-1.5-0.9L282.9,131.3z"/>
	<g><a href="https://cdn.rawgit.com/nicolasenault/routes_departements/de9f91762edf4f1141d2a38fa5c9e253dbfa0505/doubs.pdf" target="_blank"><path id="Doubs" class="st0" d="M447.4,199.7l-0.2,0.2H445l-1.2,1.6l-1.5,0.8v2l-3.7,0.4l-2-1.4l-2.7,0.4l-2.5,2l-1.8,3.1l-1.8,0.6
		l-0.8,2.1l-2.3,0.4l-3.1,2.5l-4.1-0.1l-1.3,1h-1.1l-3.9,3.2l-1.8-0.1v1.2l0.3,2.1l2.5,1.7l1.4,1.8l-0.4,1.9l-1.3,3l-0.8,1.9
		l5.5,1.8l3.5-0.3l0.3,2.9v3.9l4.3,1.4l2,0.5l2.8,2.7l-0.3,2.3l-1.3,1.8l-3.5,1.1l0.8,2l0.4,1.5l-1.5,1.5l0.2,1.4l2.4,0.2v-0.2
		l12.1-11.3l-0.4-9.4l4.3-2.1l2.9-1.4l2.7-2.5l0.2-3.7l2.7-1.4l6.3-7.2l-1-2.3l2.2-1l2.5-3.1l-1.4-1.4l-4.7,1l-0.2-0.8l4.3-5
		L447.4,199.7z"/><title>Doubs</title></a></g>
	<g><a href="https://cdn.rawgit.com/nicolasenault/routes_departements/de9f91762edf4f1141d2a38fa5c9e253dbfa0505/belfort.pdf" target="_blank"><path id="Territoire_de_Belfort" class="st0" d="M451.4,186l-1.8,0.9l-1.5,1.1v2.5l0.8,3v1.9l-0.5,3.1l-1.1,1.1l12,5.4l0.8-0.9
		l2.6-0.4l-1-4.2l-0.6-2.2l-2.8,0.4l-0.4-2.3l1-1.8l0.2-2.3l-0.6-1.3l-3.5-2.8l-3.1-0.2L451.4,186z"/><title>Territoire de Belfort</title></a></g>
</g>
</svg>
